<?xml version="1.0" encoding="UTF-8"?>
<svg version="1.1" xmlns="http://www.w3.org/2000/svg" width="405" height="405">
<path d="M0 0 C10.50120551 5.79982899 18.04579665 14.05344602 21.80078125 25.546875 C22.58097832 30.23234224 22.9750554 34.94504771 23.42578125 39.671875 C24.78726434 51.32640221 27.02915182 58.8529205 34.4453125 67.8203125 C36.90706483 70.95603161 38.90883832 74.36435506 40.92578125 77.796875 C41.33787842 78.49659424 41.74997559 79.19631348 42.17456055 79.91723633 C47.77225918 89.68463793 52.58040579 100.30404486 55.36328125 111.234375 C57.55705011 119.16781584 63.68259536 123.83925281 70.40625 128.04296875 C72.98468846 129.66237953 75.44884932 131.40156401 77.92578125 133.171875 C85.89088113 138.73402744 93.6800689 142.20032791 102.80078125 145.546875 C102.92578125 147.91796875 102.92578125 147.91796875 102.80078125 150.546875 C96.4929557 157.0518201 88.08120216 159.65250078 79.23828125 159.796875 C70.74125532 159.69248893 63.06089935 158.50003982 56.17578125 153.296875 C52.87015686 150.88738936 51.06964031 150.19171511 46.98828125 150.671875 C46.16972656 150.81753906 45.35117188 150.96320313 44.5078125 151.11328125 C39.63245101 151.89418331 34.72693568 151.60415587 29.80078125 151.546875 C30.13078125 155.506875 30.46078125 159.466875 30.80078125 163.546875 C33.30729167 164.45833333 35.81380208 165.36979167 38.3203125 166.28125 C41.07330407 167.68592602 42.24827148 168.8987814 43.80078125 171.546875 C43.67578125 173.671875 43.67578125 173.671875 42.80078125 175.546875 C39.2534907 177.91173537 37.58717755 177.83487935 33.375 177.92578125 C32.10333984 177.95994141 30.83167969 177.99410156 29.52148438 178.02929688 C28.17709559 178.05659992 26.83269417 178.0832872 25.48828125 178.109375 C22.86710191 178.1695584 20.24599997 178.23323653 17.625 178.30078125 C16.46057373 178.32470947 15.29614746 178.3486377 14.09643555 178.37329102 C10.92406399 178.54038163 7.92491647 178.99133255 4.80078125 179.546875 C2.69804007 179.63481252 0.59285389 179.67711677 -1.51171875 179.671875 C-2.55972656 179.67445313 -3.60773438 179.67703125 -4.6875 179.6796875 C-7.19921875 179.546875 -7.19921875 179.546875 -8.19921875 178.546875 C-8.19921875 175.234375 -8.19921875 175.234375 -7.19921875 171.546875 C-4.97192414 169.69880801 -2.87032075 168.76101227 -0.19921875 167.546875 C-9.82851506 167.80925365 -18.82479765 168.84408366 -28.16943359 171.26269531 C-32.17134132 172.2638487 -35.22885482 172.86779914 -39.19921875 171.546875 C-40.19921875 170.546875 -40.19921875 170.546875 -40.453125 168.203125 C-40.06030618 164.09363578 -38.03755975 162.79649179 -34.97265625 160.24609375 C-30.97210971 157.79505467 -26.73747484 156.51193194 -22.21655273 155.3203125 C-20.06971546 154.7591404 -20.06971546 154.7591404 -17.19921875 153.546875 C-15.75264931 150.69424007 -16.24149563 149.28381883 -16.76171875 146.046875 C-18.54900247 141.69522768 -20.16072985 140.86526678 -24.19921875 138.546875 C-37.72579774 130.14615752 -45.3007286 115.5613303 -49.19921875 100.546875 C-49.37195312 99.94858887 -49.5446875 99.35030273 -49.72265625 98.73388672 C-52.13158714 87.6789672 -51.3698739 73.45721017 -47.85546875 62.71875 C-47.00639025 60.28684706 -47.00639025 60.28684706 -47.19921875 56.546875 C-48.9645147 55.32996967 -48.9645147 55.32996967 -51.19921875 54.546875 C-53.4339228 55.32996967 -53.4339228 55.32996967 -55.19921875 56.546875 C-58.27315988 53.67125265 -60.02355006 51.81592891 -60.36035156 47.46557617 C-60.40590485 44.8883724 -60.43447924 42.3119475 -60.44921875 39.734375 C-60.46984375 38.84427734 -60.49046875 37.95417969 -60.51171875 37.03710938 C-60.54317707 31.73245057 -60.09971649 28.15721269 -57.19921875 23.546875 C-56.78800781 22.85980469 -56.37679687 22.17273438 -55.953125 21.46484375 C-55.55996094 20.89378906 -55.16679688 20.32273438 -54.76171875 19.734375 C-54.17583984 18.85845703 -54.17583984 18.85845703 -53.578125 17.96484375 C-51.88210156 16.22077432 -50.56578484 15.93376585 -48.19921875 15.546875 C-47.97234375 14.515625 -47.74546875 13.484375 -47.51171875 12.421875 C-45.55442765 5.89319262 -41.79332752 2.58257255 -36.07421875 -0.828125 C-24.84444853 -6.07606941 -11.12652859 -5.03309298 0 0 Z M-3.19921875 149.546875 C-3.19921875 151.196875 -3.19921875 152.846875 -3.19921875 154.546875 C-2.58433594 154.80082031 -1.96945313 155.05476562 -1.3359375 155.31640625 C-0.52769531 155.66058594 0.28054687 156.00476563 1.11328125 156.359375 C2.31404297 156.86404297 2.31404297 156.86404297 3.5390625 157.37890625 C7.34014938 159.3418164 9.07161103 161.68949528 10.80078125 165.546875 C13.49760592 164.85175221 13.49760592 164.85175221 15.80078125 162.546875 C16.26424679 158.85005576 16.08406506 155.25474535 15.80078125 151.546875 C9.42292605 150.37393611 3.29756563 149.25156662 -3.19921875 149.546875 Z " fill="#38C063" transform="translate(80.19921875,114.453125)"/>
<path d="M0 0 C0.73734375 0.38414063 1.4746875 0.76828125 2.234375 1.1640625 C12.70675305 6.95142932 19.8260294 18.2506457 23.39794922 29.43286133 C24.52045471 34.21921381 24.47152972 38.98090813 24.4375 43.875 C24.45748047 44.88691406 24.47746094 45.89882812 24.49804688 46.94140625 C24.48655055 64.89866263 14.17221978 76.15148945 2.18319702 88.23141479 C0.72179737 89.68982393 -0.74205523 91.14577887 -2.20825195 92.59936523 C-4.43994227 94.81492462 -6.65507788 97.04613683 -8.86914062 99.27929688 C-10.30633045 100.71450485 -11.74445031 102.14878225 -13.18359375 103.58203125 C-13.83388046 104.23839066 -14.48416718 104.89475006 -15.15415955 105.57099915 C-20.56252881 110.89872275 -26.35422741 115.44717094 -33.375 118.4375 C-36.43456947 120.25867231 -36.93330426 121.77189794 -38.14526367 125.02441406 C-42.34585414 134.73340523 -52.23950296 142.61178487 -59.59570312 149.96630859 C-61.74158335 152.11656618 -63.87092575 154.28233575 -66 156.44921875 C-77.96057058 168.51316776 -89.022375 178.22335054 -106.71655273 178.51904297 C-108.24904663 178.5096167 -108.24904663 178.5096167 -109.8125 178.5 C-110.87476807 178.49500488 -111.93703613 178.49000977 -113.03149414 178.48486328 C-121.07565564 178.30573352 -127.06818767 177.2975004 -134 173 C-134.89332031 172.47277344 -135.78664062 171.94554687 -136.70703125 171.40234375 C-138.91549008 170.02163293 -141.02628698 168.69958621 -143 167 C-143 166.34 -143 165.68 -143 165 C-143.9590625 164.5978125 -143.9590625 164.5978125 -144.9375 164.1875 C-147 163 -147 163 -148 160 C-148.66 160 -149.32 160 -150 160 C-150.94732816 158.35980399 -151.88227716 156.7124573 -152.8125 155.0625 C-153.33457031 154.14597656 -153.85664063 153.22945312 -154.39453125 152.28515625 C-158.08781569 144.7278516 -159.53461948 138.09527182 -159.4375 129.6875 C-159.42992676 128.76614258 -159.42235352 127.84478516 -159.41455078 126.89550781 C-159.04264484 111.47091249 -152.2441646 101.01008344 -142 90 C-141.26523438 89.20335937 -141.26523438 89.20335937 -140.515625 88.390625 C-139.39115696 87.21324082 -138.20157389 86.09858185 -137 85 C-136.34 85 -135.68 85 -135 85 C-134.34 83.68 -133.68 82.36 -133 81 C-132.34 81 -131.68 81 -131 81 C-130.773125 80.443125 -130.54625 79.88625 -130.3125 79.3125 C-128.62449964 76.33840412 -126.53323483 74.27991135 -124 72 C-123.34 72 -122.68 72 -122 72 C-121.34 70.68 -120.68 69.36 -120 68 C-119.34 68 -118.68 68 -118 68 C-117.71962891 67.15501953 -117.71962891 67.15501953 -117.43359375 66.29296875 C-115.35875144 62.97435176 -112.32717126 61.31619611 -109.0625 59.3125 C-108.42892578 58.90966797 -107.79535156 58.50683594 -107.14257812 58.09179688 C-104.45719548 56.40602039 -102.0182643 55.0060881 -99 54 C-97.98245132 52.1346755 -97.98245132 52.1346755 -97.3125 49.9375 C-96.93544922 48.83728516 -96.93544922 48.83728516 -96.55078125 47.71484375 C-96.36902344 47.14894531 -96.18726563 46.58304688 -96 46 C-95.34 46 -94.68 46 -94 46 C-93.896875 45.4225 -93.79375 44.845 -93.6875 44.25 C-92.89103535 41.64338842 -91.80934723 40.0264689 -90 38 C-89.34 38 -88.68 38 -88 38 C-87.731875 37.360625 -87.46375 36.72125 -87.1875 36.0625 C-86 34 -86 34 -83 33 C-81.79117904 30.99983534 -81.79117904 30.99983534 -81 29 C-80.34 29 -79.68 29 -79 29 C-78.34 27.68 -77.68 26.36 -77 25 C-76.34 25 -75.68 25 -75 25 C-74.34 23.68 -73.68 22.36 -73 21 C-72.34 21 -71.68 21 -71 21 C-70.773125 20.443125 -70.54625 19.88625 -70.3125 19.3125 C-68.62449964 16.33840412 -66.53323483 14.27991135 -64 12 C-63.34 12 -62.68 12 -62 12 C-61.34 10.68 -60.68 9.36 -60 8 C-59.34 8 -58.68 8 -58 8 C-57.67 7.01 -57.34 6.02 -57 5 C-54.78964886 3.52155321 -52.63453726 2.21331864 -50.3125 0.9375 C-49.39307617 0.4105957 -49.39307617 0.4105957 -48.45507812 -0.12695312 C-34.60295448 -7.89765663 -13.74231964 -8.46040767 0 0 Z M-37 22 C-37 22.66 -37 23.32 -37 24 C-37.556875 24.2475 -38.11375 24.495 -38.6875 24.75 C-43.26672496 27.22525673 -46.39025163 30.39250909 -49.62109375 34.43359375 C-51.11047696 36.12549932 -52.69886294 37.50455737 -54.4375 38.9375 C-57.53731832 41.50495822 -60.0833324 44.28993408 -62.64453125 47.38671875 C-64.31712133 49.37743836 -66.12664349 51.19869566 -68 53 C-65.09120256 55.08798364 -65.09120256 55.08798364 -61.875 56.25 C-51.1459459 60.79966218 -41.68348232 69.26760656 -37.09375 80.1484375 C-36.35965511 82.08563235 -35.67532959 84.04154419 -35 86 C-31.22862217 86 -30.25142363 84.63125774 -27.64613342 82.08862305 C-27.08357346 81.52312744 -26.52101349 80.95763184 -25.94140625 80.375 C-25.35584457 79.79468018 -24.7702829 79.21436035 -24.16697693 78.61645508 C-22.92678843 77.38269842 -21.69048237 76.1450288 -20.45776367 74.90380859 C-18.58535685 73.02295991 -16.69522309 71.16139491 -14.80273438 69.30078125 C-13.59782604 68.09748691 -12.39401502 66.8930926 -11.19140625 65.6875 C-10.63087051 65.13819824 -10.07033478 64.58889648 -9.49281311 64.02294922 C-4.77095998 59.21761032 -1.47396552 54.17835702 -0.46875 47.4375 C-0.55002123 38.49766493 -1.61030581 33.14295956 -7.25 26.25 C-14.27115097 20.50542193 -19.61638612 19.56357647 -28.73046875 19.6640625 C-31.87122594 19.98676874 -34.15971779 20.66276732 -37 22 Z M-77 77 C-75.1180317 82.74495588 -73.23600359 86.65538093 -69 91 C-68.34 91 -67.68 91 -67 91 C-67 91.66 -67 92.32 -67 93 C-64.03 93.99 -61.06 94.98 -58 96 C-58.53913471 90.33908559 -60.29552544 86.43604036 -64.57421875 82.58203125 C-68.53211198 79.54912879 -72.15127244 78.08848986 -77 77 Z M-101 86 C-102.14259315 87.14259315 -103.28236808 88.28810377 -104.41015625 89.4453125 C-106.20425064 91.19973404 -108.08878763 92.81170498 -110 94.4375 C-112.44003768 96.54521911 -114.42126162 98.50551395 -116.5 101 C-118.59687631 103.51625157 -120.588648 105.45311975 -123.0625 107.5625 C-129.10183223 112.75042261 -133.46491343 117.9521351 -134.32421875 126.05859375 C-134.55258427 132.87018606 -134.31485105 138.51929783 -130 144 C-125.18299448 149.068415 -120.80992885 152.6568836 -113.66015625 153.30078125 C-112.47292969 153.30464844 -111.28570312 153.30851562 -110.0625 153.3125 C-108.28552734 153.33763672 -108.28552734 153.33763672 -106.47265625 153.36328125 C-94.02756571 152.06137639 -84.13945099 138.27739892 -75.875 129.9375 C-74.90909319 128.96655904 -73.94294838 127.99585477 -72.9765625 127.02539062 C-70.64870613 124.68589498 -68.32323895 122.34407948 -66 120 C-68.27222049 118.85978058 -70.54907867 117.73565676 -72.83984375 116.6328125 C-73.86207031 116.13523437 -74.88429688 115.63765625 -75.9375 115.125 C-76.95714844 114.63257813 -77.97679687 114.14015625 -79.02734375 113.6328125 C-83.49479688 111.17894205 -86.92129372 108.55094531 -89.6875 104.25 C-90.450625 103.1775 -91.21375 102.105 -92 101 C-92.66 101 -93.32 101 -94 101 C-97 93.5 -97 93.5 -100 86 C-100.33 86 -100.66 86 -101 86 Z " fill="#87B1C1" transform="translate(361,116)"/>
<path d="M0 0 C0.66 0.33 1.32 0.66 2 1 C1.67 1.66 1.34 2.32 1 3 C0.34 3 -0.32 3 -1 3 C-2.75778002 9.81139756 -3.07782461 15.65480026 0.4375 21.875 C0.88996094 22.59429687 1.34242188 23.31359375 1.80859375 24.0546875 C3 26 3 26 4 29 C0.60600504 34.18316163 -4.27930908 38.08283094 -9 42 C-9.99967995 43.12798111 -10.97810664 44.27506042 -11.9375 45.4375 C-14.00417006 47.93811653 -16.12785605 50.05380811 -18.625 52.125 C-24.5226465 57.04836569 -28.56969727 62.34226371 -29.2890625 70.12890625 C-29.44060382 76.18367092 -29.39138954 80.7716078 -26 86 C-26 86.66 -26 87.32 -26 88 C-24.515 88.495 -24.515 88.495 -23 89 C-22.21625 89.804375 -21.4325 90.60875 -20.625 91.4375 C-16.15133179 95.8046523 -12.20374815 96.29249593 -6.0625 96.3125 C-4.28552734 96.33763672 -4.28552734 96.33763672 -2.47265625 96.36328125 C10.44131658 95.01232571 20.85014214 80.25508424 29.35083008 71.55322266 C30.71778801 70.15618265 32.09121883 68.7654853 33.46484375 67.375 C34.265271 66.55773437 35.06569824 65.74046875 35.89038086 64.8984375 C38 63 38 63 41 62 C46.14965891 55.43449813 47.66209952 49.15816785 47.6015625 40.9453125 C46.87333766 37.37984805 45.40370664 35.67908274 43 33 C42.5978125 32.01 42.5978125 32.01 42.1875 31 C39.43816765 26.36954552 33.97286151 23.6576205 29 22 C29.63292969 21.75765625 30.26585937 21.5153125 30.91796875 21.265625 C33.14658109 20.1929854 33.14658109 20.1929854 33.80078125 18.046875 C33.96964844 17.28890625 34.13851562 16.5309375 34.3125 15.75 C35.81412312 10.63458059 38.4520004 7.73858041 43 5 C43.71285156 4.8246875 44.42570312 4.649375 45.16015625 4.46875 C45.76730469 4.3140625 46.37445313 4.159375 47 4 C47.33 3.34 47.66 2.68 48 2 C58.42213467 9.61973846 65.73992205 17.64577394 70 30 C71.65 29.01 73.3 28.02 75 27 C74.1875 29.4375 74.1875 29.4375 73 32 C71.515 32.495 71.515 32.495 70 33 C70.01047363 33.56396484 70.02094727 34.12792969 70.03173828 34.70898438 C70.07374478 37.30594281 70.09946602 39.90282939 70.125 42.5 C70.14175781 43.386875 70.15851563 44.27375 70.17578125 45.1875 C70.2172205 50.82323788 69.60441286 55.59300232 68 61 C69.485 61.495 69.485 61.495 71 62 C70.01 62.66 69.02 63.32 68 64 C67.5875 65.010625 67.175 66.02125 66.75 67.0625 C62.36847568 77.76008924 52.4254193 85.94701414 44.40429688 93.96630859 C42.25841665 96.11656618 40.12907425 98.28233575 38 100.44921875 C26.03942942 112.51316776 14.977625 122.22335054 -2.71655273 122.51904297 C-4.24904663 122.5096167 -4.24904663 122.5096167 -5.8125 122.5 C-6.87476807 122.49500488 -7.93703613 122.49000977 -9.03149414 122.48486328 C-17.07565564 122.30573352 -23.06818767 121.2975004 -30 117 C-30.89332031 116.47277344 -31.78664062 115.94554687 -32.70703125 115.40234375 C-34.91549008 114.02163293 -37.02628698 112.69958621 -39 111 C-39 110.34 -39 109.68 -39 109 C-39.9590625 108.5978125 -39.9590625 108.5978125 -40.9375 108.1875 C-43 107 -43 107 -44 104 C-44.66 104 -45.32 104 -46 104 C-46.94732816 102.35980399 -47.88227716 100.7124573 -48.8125 99.0625 C-49.33457031 98.14597656 -49.85664063 97.22945313 -50.39453125 96.28515625 C-54.08781569 88.7278516 -55.53461948 82.09527182 -55.4375 73.6875 C-55.42992676 72.76614258 -55.42235352 71.84478516 -55.41455078 70.89550781 C-55.04264484 55.47091249 -48.2441646 45.01008344 -38 34 C-37.51015625 33.46890625 -37.0203125 32.9378125 -36.515625 32.390625 C-35.39115696 31.21324082 -34.20157389 30.09858185 -33 29 C-32.34 29 -31.68 29 -31 29 C-30.34 27.68 -29.68 26.36 -29 25 C-28.34 25 -27.68 25 -27 25 C-26.773125 24.443125 -26.54625 23.88625 -26.3125 23.3125 C-24.62449964 20.33840412 -22.53323483 18.27991135 -20 16 C-19.34 16 -18.68 16 -18 16 C-17.34 14.68 -16.68 13.36 -16 12 C-15.34 12 -14.68 12 -14 12 C-13.79632813 11.42765625 -13.59265625 10.8553125 -13.3828125 10.265625 C-11.45398054 7.10539185 -8.97914012 5.73136604 -5.875 3.75 C-4.77929688 3.04359375 -3.68359375 2.3371875 -2.5546875 1.609375 C-1.71164063 1.07828125 -0.86859375 0.5471875 0 0 Z " fill="#87B1C1" transform="translate(257,172)"/>
<path d="M0 0 C0.33 0 0.66 0 1 0 C0.95875 1.175625 0.9175 2.35125 0.875 3.5625 C1.67005398 10.74038174 6.574739 16.20584489 10.59619141 21.95117188 C19.68945056 35.22258592 27.57534272 50.02709913 31.5625 65.6875 C33.75626886 73.62094084 39.88181411 78.29237781 46.60546875 82.49609375 C49.18390721 84.11550453 51.64806807 85.85468901 54.125 87.625 C62.09009988 93.18715244 69.87928765 96.65345291 79 100 C79.125 102.37109375 79.125 102.37109375 79 105 C72.69217445 111.5049451 64.28042091 114.10562578 55.4375 114.25 C47.06902297 114.14719316 39.68839269 112.98427675 32.78515625 108.09765625 C27.97902061 104.78148789 23.19275855 103.18015958 17.625 101.5625 C7.08272171 98.27403216 -1.42289139 94.26593666 -9 86 C-9.763125 85.443125 -10.52625 84.88625 -11.3125 84.3125 C-11.869375 83.879375 -12.42625 83.44625 -13 83 C-13 82.34 -13 81.68 -13 81 C-13.66 81 -14.32 81 -15 81 C-15 80.34 -15 79.68 -15 79 C-15.58910156 78.75894531 -16.17820312 78.51789063 -16.78515625 78.26953125 C-23.57084941 74.38002459 -27.57975625 64.91049747 -30.1171875 57.8359375 C-31.20827413 53.09502124 -31.50558774 48.60322692 -31.5625 43.75 C-31.57724365 42.92258301 -31.5919873 42.09516602 -31.60717773 41.24267578 C-31.47786593 33.485516 -29.12608513 27.07513547 -23.875 21.3125 C-17.91002588 15.79553896 -8.39923593 9 0 9 C0 6.03 0 3.06 0 0 Z " fill="#B6D01B" transform="translate(104,160)"/>
<path d="M0 0 C0.50144531 0.28875 1.00289062 0.5775 1.51953125 0.875 C2.03223078 7.82492694 1.54626509 13.04364297 -2.48046875 18.875 C-3.45456868 19.90024599 -4.44847074 20.90805631 -5.48046875 21.875 C-10.35546875 20 -10.35546875 20 -11.48046875 18.875 C-13.08095077 18.74964348 -14.68762803 18.69925213 -16.29296875 18.6875 C-17.16566406 18.67332031 -18.03835937 18.65914062 -18.9375 18.64453125 C-21.65617141 18.8909239 -23.20428088 19.38881226 -25.48046875 20.875 C-28.07338959 24.76438126 -27.89356612 27.80155803 -28.13671875 32.37890625 C-28.48046875 34.875 -28.48046875 34.875 -30.48046875 36.875 C-31.00223513 39.11114161 -31.45016673 41.3648452 -31.85546875 43.625 C-33.93869912 53.62040088 -33.93869912 53.62040088 -37.48046875 56.875 C-42.12234323 57.88951277 -45.33320854 56.94863011 -49.48046875 54.875 C-51.7151728 55.65809467 -51.7151728 55.65809467 -53.48046875 56.875 C-56.55440988 53.99937765 -58.30480006 52.14405391 -58.64160156 47.79370117 C-58.68715485 45.2164974 -58.71572924 42.6400725 -58.73046875 40.0625 C-58.75109375 39.17240234 -58.77171875 38.28230469 -58.79296875 37.36523438 C-58.82442707 32.06057557 -58.38096649 28.48533769 -55.48046875 23.875 C-55.06925781 23.18792969 -54.65804687 22.50085938 -54.234375 21.79296875 C-53.84121094 21.22191406 -53.44804688 20.65085938 -53.04296875 20.0625 C-52.45708984 19.18658203 -52.45708984 19.18658203 -51.859375 18.29296875 C-50.16335156 16.54889932 -48.84703484 16.26189085 -46.48046875 15.875 C-46.25359375 14.84375 -46.02671875 13.8125 -45.79296875 12.75 C-43.83567765 6.22131762 -40.07457752 2.91069755 -34.35546875 -0.5 C-23.91945149 -5.40802792 -10.33081283 -5.06861004 0 0 Z " fill="#FA2D24" transform="translate(78.48046875,114.125)"/>
<path d="M0 0 C2.31 0.33 4.62 0.66 7 1 C7 1.66 7 2.32 7 3 C8.98 3.66 10.96 4.32 13 5 C13 6.98 13 8.96 13 11 C13.60328125 11.17015625 14.2065625 11.3403125 14.828125 11.515625 C22.99373695 13.99164927 22.99373695 13.99164927 26 18 C26.495 19.485 26.495 19.485 27 21 C29.06280773 20.44986966 29.06280773 20.44986966 31 19 C31.70535611 16.1213065 31.70535611 16.1213065 31.75 12.875 C31.8325 10.93625 31.915 8.9975 32 7 C36.29 7 40.58 7 45 7 C45 11.29 45 15.58 45 20 C46.546875 20.391875 48.09375 20.78375 49.6875 21.1875 C54.45836443 22.62418076 57.1095467 23.91349706 60 28 C60 30.1875 60 30.1875 59 32 C55.45270945 34.36486037 53.7863963 34.28800435 49.57421875 34.37890625 C48.30255859 34.41306641 47.03089844 34.44722656 45.72070312 34.48242188 C44.37631434 34.50972492 43.03191292 34.5364122 41.6875 34.5625 C39.06632066 34.6226834 36.44521872 34.68636153 33.82421875 34.75390625 C32.65979248 34.77783447 31.49536621 34.8017627 30.2956543 34.82641602 C27.12328274 34.99350663 24.12413522 35.44445755 21 36 C18.89725882 36.08793752 16.79207264 36.13024177 14.6875 36.125 C13.63949219 36.12757813 12.59148437 36.13015625 11.51171875 36.1328125 C9 36 9 36 8 35 C8 31.6875 8 31.6875 9 28 C11.22729461 26.15193301 13.328898 25.21413727 16 24 C6.37070369 24.26237865 -2.6255789 25.29720866 -11.97021484 27.71582031 C-15.97212257 28.7169737 -19.02963607 29.32092414 -23 28 C-24 27 -24 27 -24.25390625 24.65625 C-23.86108743 20.54676078 -21.838341 19.24961679 -18.7734375 16.69921875 C-14.77289096 14.24817967 -10.53825609 12.96505694 -6.01733398 11.7734375 C-3.87049671 11.2122654 -3.87049671 11.2122654 -1 10 C0.51494896 6.8627932 0.0784212 3.4505328 0 0 Z " fill="#FBB908" transform="translate(64,258)"/>
<path d="M0 0 C3.19295963 1.35086754 5.5523035 3.26688199 8.16796875 5.51171875 C11.16984809 7.95034567 14.36522829 10.10506399 17.546875 12.30078125 C19.61702644 13.73472372 21.65568314 15.20024667 23.6875 16.6875 C30.9977396 21.87051053 38.60622303 24.92017807 47 28 C47.125 30.37109375 47.125 30.37109375 47 33 C40.69217445 39.5049451 32.28042091 42.10562578 23.4375 42.25 C13.38392487 42.13870581 5.18720573 39.82551177 -3 34 C-2.67 33.34 -2.34 32.68 -2 32 C0.32156597 31.59270772 2.6568787 31.25561323 5 31 C5.73005853 21.42812148 3.53151449 13.11955219 1 4 C0.66122327 2.66803933 0.32448553 1.33551414 0 0 Z " fill="#06AA47" transform="translate(136,232)"/>
<path d="M0 0 C0.33 0.99 0.66 1.98 1 3 C2.33038449 3.3449145 3.66457061 3.67516582 5 4 C14.06513747 9.20763216 14.06513747 9.20763216 16 14 C16.23337468 18.7550091 15.69633576 23.29973362 15 28 C14.80664062 29.33611328 14.80664062 29.33611328 14.609375 30.69921875 C13.7294793 35.49790919 12.4830267 39.4253147 9 43 C4.38211602 44.0547019 1.12431848 43.06215924 -3 41 C-5.23470405 41.78309467 -5.23470405 41.78309467 -7 43 C-10.07394113 40.12437765 -11.82433131 38.26905391 -12.16113281 33.91870117 C-12.2066861 31.3414974 -12.23526049 28.7650725 -12.25 26.1875 C-12.270625 25.29740234 -12.29125 24.40730469 -12.3125 23.49023438 C-12.34395832 18.18557557 -11.90049774 14.61033769 -9 10 C-8.38318359 8.96939453 -8.38318359 8.96939453 -7.75390625 7.91796875 C-7.36074219 7.34691406 -6.96757812 6.77585938 -6.5625 6.1875 C-6.17191406 5.60355469 -5.78132813 5.01960937 -5.37890625 4.41796875 C-3.68288281 2.67389932 -2.36656609 2.38689085 0 2 C0 1.34 0 0.68 0 0 Z " fill="#FDD224" transform="translate(32,128)"/>
<path d="M0 0 C0.33 0 0.66 0 1 0 C1 4.62 1 9.24 1 14 C1.66 14 2.32 14 3 14 C3.16435547 14.93972656 3.16435547 14.93972656 3.33203125 15.8984375 C3.56986328 17.12433594 3.56986328 17.12433594 3.8125 18.375 C3.96332031 19.18710938 4.11414062 19.99921875 4.26953125 20.8359375 C4.87544942 23.35820641 4.87544942 23.35820641 8 25 C7.96706622 26.94309284 7.92914938 28.8864625 7.84765625 30.828125 C8.11222006 34.59985525 9.86821047 36.92771508 12 40 C12.66 40.33 13.32 40.66 14 41 C14.45375 42.155 14.9075 43.31 15.375 44.5 C16.57589733 48.10642443 16.57589733 48.10642443 19.1875 48.9375 C19.785625 48.958125 20.38375 48.97875 21 49 C20.67 50.32 20.34 51.64 20 53 C20.58136719 53.27714844 21.16273437 53.55429688 21.76171875 53.83984375 C23.90609357 54.95132599 25.81951312 56.2027228 27.8125 57.5625 C31.62011717 59.99137399 34.51976087 60.71998505 39 61 C38.67 61.99 38.34 62.98 38 64 C41.3 64.66 44.6 65.32 48 66 C48 66.66 48 67.32 48 68 C50.06172613 68.33808686 52.1244203 68.67027361 54.1875 69 C55.91033203 69.2784375 55.91033203 69.2784375 57.66796875 69.5625 C61.8296517 70.1123286 61.8296517 70.1123286 66 70 C67.38232443 68.37373596 68.71937515 66.7074998 70 65 C70.99 65 71.98 65 73 65 C72.01 62.03 72.01 62.03 71 59 C73.94480138 60.07083686 76.46368259 61.28004592 79.15625 62.90625 C83.08315608 65.17496851 87.09935149 66.48784883 91.4375 67.75 C92.16904297 67.97042969 92.90058594 68.19085938 93.65429688 68.41796875 C95.43390085 68.95301308 97.2166368 69.4776223 99 70 C99 70.66 99 71.32 99 72 C92.6368234 73.1569412 86.46395007 73.07262865 80 73 C80 76.96 80 80.92 80 85 C79.67 85 79.34 85 79 85 C79 80.71 79 76.42 79 72 C77.69546875 72.09539062 76.3909375 72.19078125 75.046875 72.2890625 C50.66184355 73.90445995 50.66184355 73.90445995 41 68 C41 67.34 41 66.68 41 66 C39.906875 66 38.81375 66 37.6875 66 C29.52993911 65.01296416 22.29436054 57.88262282 17 52 C16.45988281 51.45214844 15.91976562 50.90429688 15.36328125 50.33984375 C7.78940241 42.33880471 3.6648688 32.58278832 1 22 C0.73872314 21.07719238 0.73872314 21.07719238 0.47216797 20.13574219 C-0.02050274 17.9072606 -0.11393821 15.95134885 -0.09765625 13.671875 C-0.09282227 12.47304687 -0.09282227 12.47304687 -0.08789062 11.25 C-0.07951172 10.425 -0.07113281 9.6 -0.0625 8.75 C-0.05798828 7.90953125 -0.05347656 7.0690625 -0.04882812 6.203125 C-0.03707961 4.13538599 -0.01914522 2.06768376 0 0 Z " fill="#92D79B" transform="translate(30,193)"/>
<path d="M0 0 C4.24935055 2.61984753 7.24641774 5.86962661 10 10 C9.91100418 13.47083713 9.32037444 14.68877912 6.8125 17.125 C0.85472624 21.09684917 -2.89958065 22.56352535 -10 22 C-13.89922969 20.89804378 -14.7004293 20.44935605 -17 17 C-17.68492931 11.85506585 -17.82045541 7.41457828 -15.1875 2.875 C-10.88066448 -0.8165733 -5.41387508 -0.99960766 0 0 Z " fill="#F2C5A8" transform="translate(67,132)"/>
<path d="M0 0 C0.33 0.99 0.66 1.98 1 3 C2.33038449 3.3449145 3.66457061 3.67516582 5 4 C14.06513747 9.20763216 14.06513747 9.20763216 16 14 C16.23337468 18.7550091 15.69633576 23.29973362 15 28 C14.80664062 29.33611328 14.80664062 29.33611328 14.609375 30.69921875 C13.7294793 35.49790919 12.4830267 39.4253147 9 43 C4.38211602 44.0547019 1.12431848 43.06215924 -3 41 C-5.23470405 41.78309467 -5.23470405 41.78309467 -7 43 C-7 39.31787093 -6.88597445 37.07334764 -4.50390625 34.1875 C0.49633259 29.68024245 6.142904 26.27661313 12 23 C11.29920746 19.54588501 11.29920746 19.54588501 10 16 C8.18398186 14.8648832 8.18398186 14.8648832 6 14 C3.69941477 12.72012503 1.40993544 11.42183515 -0.87890625 10.12109375 C-3.0866261 8.88016296 -3.0866261 8.88016296 -6 8 C-5.8125 6.125 -5.8125 6.125 -5 4 C-2.4375 2.75 -2.4375 2.75 0 2 C0 1.34 0 0.68 0 0 Z " fill="#FCCD21" transform="translate(32,128)"/>
<path d="M0 0 C-0.46276534 4.62765345 -0.93184754 7.86369508 -3 12 C-4.25724503 19.31488018 -4.11331873 26.59610253 -4.0625 34 C-4.05798828 35.25167969 -4.05347656 36.50335938 -4.04882812 37.79296875 C-4.03711415 40.86202941 -4.02071073 43.93098907 -4 47 C-7.79150391 46.23632812 -7.79150391 46.23632812 -9.66796875 44.109375 C-10.42013672 42.94148438 -10.42013672 42.94148438 -11.1875 41.75 C-11.95126953 40.59757812 -11.95126953 40.59757812 -12.73046875 39.421875 C-17.11420946 31.05904656 -15.81391682 19.25250603 -13.11328125 10.5234375 C-10.42824502 4.43735538 -7.08756525 -0.6454312 0 0 Z " fill="#A5DFEC" transform="translate(279,164)"/>
<path d="M0 0 C1.8125 0.125 1.8125 0.125 4 1 C6.88245398 5.5784257 7.48350373 9.57462393 7.375 14.875 C7.3608606 15.93400513 7.3608606 15.93400513 7.34643555 17.0144043 C7.19087806 22.38206712 6.6522166 26.33575702 4 31 C0.42773666 34.08952505 -2.36540863 34.32334358 -7 34 C-6.75443359 32.34484375 -6.75443359 32.34484375 -6.50390625 30.65625 C-5.87159586 25.59776685 -5.8894053 20.59063952 -5.9375 15.5 C-5.94201172 14.5821875 -5.94652344 13.664375 -5.95117188 12.71875 C-5.96283674 10.47909609 -5.97920386 8.23958455 -6 6 C-5.36578125 5.71382812 -4.7315625 5.42765625 -4.078125 5.1328125 C-1.58438799 3.77344458 -1.03567876 2.58919691 0 0 Z " fill="#347A8B" transform="translate(332,199)"/>
<path d="M0 0 C-1.04169517 5.45991949 -4.42874719 8.86455275 -8.61328125 12.33984375 C-13.15588975 15.1701608 -17.81918735 15.37566565 -23.0625 15.4375 C-23.73522949 15.44773193 -24.40795898 15.45796387 -25.10107422 15.46850586 C-30.14529612 15.38030291 -33.61495373 14.32664752 -38 12 C-40 9 -40 9 -39.625 6.8125 C-39.41875 6.214375 -39.2125 5.61625 -39 5 C-32.25 5.875 -32.25 5.875 -30 7 C-20.10652158 7.86585679 -13.48318758 6.33759244 -5.125 1.25 C-3 0 -3 0 0 0 Z " fill="#A5DEEA" transform="translate(276,268)"/>
<path d="M0 0 C1.91595968 -0.08133791 3.83291932 -0.13934367 5.75 -0.1875 C7.35101563 -0.23970703 7.35101563 -0.23970703 8.984375 -0.29296875 C12.31488541 0.0305912 13.65757124 0.65188574 16 3 C16 3.66 16 4.32 16 5 C16.66 5.33 17.32 5.66 18 6 C16.783125 6.226875 15.56625 6.45375 14.3125 6.6875 C9.95535527 7.81142779 7.7445105 9.31451447 5 13 C3.77388813 15.94662368 2.82565888 18.91888271 2 22 C-0.31 21.67 -2.62 21.34 -5 21 C-5.71404789 12.65357353 -4.3449235 7.15360619 0 0 Z " fill="#357A8B" transform="translate(288,171)"/>
<path d="M0 0 C1.32 0 2.64 0 4 0 C6.39112209 3.58668313 6.23381027 5.16396569 6.1953125 9.41796875 C6.18564453 11.29838867 6.18564453 11.29838867 6.17578125 13.21679688 C6.15902344 14.52712891 6.14226562 15.83746094 6.125 17.1875 C6.11496639 18.52277987 6.1058412 19.85806689 6.09765625 21.19335938 C6.07405292 24.46242015 6.04112594 27.73112028 6 31 C5.34 31.33 4.68 31.66 4 32 C0.51756859 29.67837906 0.43009546 28.78554681 -1 25 C-1.70125 23.9275 -2.4025 22.855 -3.125 21.75 C-5.5630197 17.5835335 -5.61700083 13.71564923 -5 9 C-4 5.9375 -4 5.9375 -3 4 C-2.34 4 -1.68 4 -1 4 C-0.67 2.68 -0.34 1.36 0 0 Z " fill="#7BABBC" transform="translate(259,171)"/>
<path d="M0 0 C3.02685319 0.15522324 4.50861816 0.48980929 6.6328125 2.6953125 C9.24387699 7.0968212 8.55545597 12.05770425 8 17 C7.18461005 20.140222 6.24640829 22.62374151 4 25 C0.3125 26.0625 0.3125 26.0625 -3 26 C-3.33 25.67 -3.66 25.34 -4 25 C-3.78912041 23.2426701 -3.56895074 21.48620257 -3.31640625 19.734375 C-2.7580988 14.90949582 -2.6055146 10.04569542 -2.37890625 5.1953125 C-2 2 -2 2 0 0 Z " fill="#A5DFEB" transform="translate(311,207)"/>
<path d="M0 0 C2.94480138 1.07083686 5.46368259 2.28004592 8.15625 3.90625 C12.08315608 6.17496851 16.09935149 7.48784883 20.4375 8.75 C21.16904297 8.97042969 21.90058594 9.19085938 22.65429688 9.41796875 C24.43390085 9.95301308 26.2166368 10.4776223 28 11 C28 11.66 28 12.32 28 13 C21.6368234 14.1569412 15.46395007 14.07262865 9 14 C9 17.96 9 21.92 9 26 C8.67 26 8.34 26 8 26 C8 21.71 8 17.42 8 13 C3.71 13 -0.58 13 -5 13 C-3 9 -3 9 -1 6 C-0.01 6 0.98 6 2 6 C1.34 4.02 0.68 2.04 0 0 Z " fill="#95DA8A" transform="translate(101,252)"/>
<path d="M0 0 C4.29 0 8.58 0 13 0 C13 4.29 13 8.58 13 13 C14.546875 13.391875 16.09375 13.78375 17.6875 14.1875 C22.45836443 15.62418076 25.1095467 16.91349706 28 21 C28 23.1875 28 23.1875 27 25 C23.45270945 27.36486037 21.7863963 27.28800435 17.57421875 27.37890625 C16.30255859 27.41306641 15.03089844 27.44722656 13.72070312 27.48242188 C12.37631434 27.50972492 11.03191292 27.5364122 9.6875 27.5625 C7.06632066 27.6226834 4.44521872 27.68636153 1.82421875 27.75390625 C0.65979248 27.77783447 -0.50463379 27.8017627 -1.7043457 27.82641602 C-4.87651329 27.99349588 -7.8756358 28.44733151 -11 29 C-13.12411996 29.06460219 -15.25002905 29.08611079 -17.375 29.0625 C-18.96441406 29.04896484 -18.96441406 29.04896484 -20.5859375 29.03515625 C-21.38257812 29.02355469 -22.17921875 29.01195312 -23 29 C-23.33 27.35 -23.66 25.7 -24 24 C-23.34 24.99 -22.68 25.98 -22 27 C-17.34854408 27.38024775 -17.34854408 27.38024775 -13 26 C-9.88730709 25.68567477 -6.77382422 25.48910126 -3.65234375 25.28125 C-1.07994595 25.28948002 -1.07994595 25.28948002 0 24 C1.85369611 23.91262355 3.71067541 23.89301847 5.56640625 23.90234375 C6.69111328 23.90556641 7.81582031 23.90878906 8.97460938 23.91210938 C10.15861328 23.92048828 11.34261719 23.92886719 12.5625 23.9375 C13.75037109 23.94201172 14.93824219 23.94652344 16.16210938 23.95117188 C19.10812226 23.96300325 22.05403681 23.97948713 25 24 C24.65213292 22.02463255 24.65213292 22.02463255 24 20 C23.34 19.67 22.68 19.34 22 19 C22 18.34 22 17.68 22 17 C21.36191406 16.86722656 20.72382812 16.73445313 20.06640625 16.59765625 C19.24011719 16.42105469 18.41382813 16.24445313 17.5625 16.0625 C16.73878906 15.88847656 15.91507813 15.71445312 15.06640625 15.53515625 C13 15 13 15 12 14 C11.92741054 11.81360547 11.91626217 9.62499611 11.9375 7.4375 C11.94652344 6.23996094 11.95554688 5.04242188 11.96484375 3.80859375 C11.97644531 2.88175781 11.98804688 1.95492188 12 1 C8.7 1 5.4 1 2 1 C2 5.29 2 9.58 2 14 C-0.31 14.33 -2.62 14.66 -5 15 C-4.35546875 14.63261719 -3.7109375 14.26523437 -3.046875 13.88671875 C-0.24445365 11.30357082 -0.41106993 9.55737589 -0.25 5.8125 C-0.1675 3.894375 -0.085 1.97625 0 0 Z " fill="#F4CB4F" transform="translate(96,265)"/>
<path d="M0 0 C0.33 0.99 0.66 1.98 1 3 C2.33038449 3.3449145 3.66457061 3.67516582 5 4 C9.75641289 6.7324074 12.98331635 9.47497452 16 14 C16.34799118 17.47991184 16.57455739 19.85088521 15 23 C14.01 22.67 13.02 22.34 12 22 C11.690625 21.030625 11.38125 20.06125 11.0625 19.0625 C10.35511863 15.94660276 10.35511863 15.94660276 8.21875 14.96875 C7.4865625 14.6490625 6.754375 14.329375 6 14 C3.69941477 12.72012503 1.40993544 11.42183515 -0.87890625 10.12109375 C-3.0866261 8.88016296 -3.0866261 8.88016296 -6 8 C-5.8125 6.125 -5.8125 6.125 -5 4 C-2.4375 2.75 -2.4375 2.75 0 2 C0 1.34 0 0.68 0 0 Z " fill="#E87DA0" transform="translate(32,128)"/>
<path d="M0 0 C0.99 0 1.98 0 3 0 C3.99390911 8.48503885 1.62432167 13.94182482 -3 21 C-4 22 -4 22 -7.3125 22.1875 C-10.64638318 22.01798052 -12.25691987 21.75557129 -15 20 C-15 19.34 -15 18.68 -15 18 C-14.39671875 17.69707031 -13.7934375 17.39414063 -13.171875 17.08203125 C-5.56032957 13.13185537 -5.56032957 13.13185537 -1.32421875 5.90625 C-0.81870634 3.95297756 -0.40213139 1.97714602 0 0 Z " fill="#3E7E8F" transform="translate(302,213)"/>
<path d="M0 0 C2.38460953 2.07691798 2.8959746 3.40556916 3.4375 6.5 C3 9 3 9 1.4375 11.3125 C-1.86307634 13.59751439 -4.0703493 13.43662786 -8 13 C-10 11 -10 11 -10.3125 7.0625 C-10.23081662 4.56208106 -10.12109418 3.22794199 -8.9375 1 C-5.83132725 -0.60318593 -3.42009021 -0.42751128 0 0 Z " fill="#3B362C" transform="translate(67,136)"/>
<path d="M0 0 C0.33 0 0.66 0 1 0 C1.01417969 0.93199219 1.02835937 1.86398438 1.04296875 2.82421875 C1.57262102 16.98168072 5.5785782 28.10193152 15 39 C15.66 39.33 16.32 39.66 17 40 C17 40.66 17 41.32 17 42 C17.66 42 18.32 42 19 42 C19 42.66 19 43.32 19 44 C19.556875 44.2475 20.11375 44.495 20.6875 44.75 C24.62640804 46.87913948 27.55694029 48.67082087 29 53 C18.21898535 49.63093292 12.31946409 40.68786005 6 32 C5.40832031 31.27039063 4.81664063 30.54078125 4.20703125 29.7890625 C3 28 3 28 3 25 C2.34 24.67 1.68 24.34 1 24 C0.51580574 21.60293954 0.15694782 19.29697798 -0.125 16.875 C-0.29257813 15.57304687 -0.46015625 14.27109375 -0.6328125 12.9296875 C-1.55108878 3.10217755 -1.55108878 3.10217755 0 0 Z " fill="#71CD5C" transform="translate(72,199)"/>
<path d="M0 0 C0.99 0 1.98 0 3 0 C2.84660156 0.96035156 2.69320313 1.92070312 2.53515625 2.91015625 C1.89288765 7.40603647 1.66031389 11.90451572 1.4375 16.4375 C1.39431641 17.26443359 1.35113281 18.09136719 1.30664062 18.94335938 C1.20161967 20.96209549 1.10041441 22.98102951 1 25 C-4.79880426 19.49857031 -4.79880426 19.49857031 -5.16796875 14.9140625 C-5.20577689 10.48294904 -5.08193274 7.03374468 -3 3 C-2.34 3 -1.68 3 -1 3 C-0.67 2.01 -0.34 1.02 0 0 Z " fill="#377A8B" transform="translate(259,172)"/>
<path d="M0 0 C0.5234375 2.18359375 0.5234375 2.18359375 0 5 C-2.55212465 7.10123333 -5.45058435 8.54152177 -8.375 10.0625 C-9.95061363 10.89762638 -11.5211876 11.74234804 -13.0859375 12.59765625 C-14.1385376 13.14691772 -14.1385376 13.14691772 -15.21240234 13.70727539 C-17.32759654 15.23690572 -17.86293933 16.69378659 -19 19 C-19.99 19.33 -20.98 19.66 -22 20 C-22 16.31787093 -21.88597445 14.07334764 -19.50390625 11.1875 C-14.41565067 6.60090342 -7.07916124 0 0 0 Z " fill="#F56D0B" transform="translate(47,151)"/>
<path d="M0 0 C0.66 0.33 1.32 0.66 2 1 C1.71799583 4.38405002 1.28694239 5.72125596 -1.1875 8.125 C-7.14527376 12.09684917 -10.89958065 13.56352535 -18 13 C-20.9375 12.1875 -20.9375 12.1875 -23 11 C-23.33 10.01 -23.66 9.02 -24 8 C-22.97519531 7.96261719 -21.95039062 7.92523438 -20.89453125 7.88671875 C-19.53381938 7.82102921 -18.17314389 7.75458291 -16.8125 7.6875 C-16.13896484 7.66494141 -15.46542969 7.64238281 -14.77148438 7.61914062 C-9.20341683 7.32036627 -5.91207488 5.91207488 -2 2 C-2 2.99 -2 3.98 -2 5 C-1.34 5 -0.68 5 0 5 C0 3.35 0 1.7 0 0 Z " fill="#E1D4AB" transform="translate(75,141)"/>
<path d="M0 0 C3.19121341 1.35012875 5.54935683 3.26474013 8.1640625 5.5078125 C13.78534823 10.07660218 19.95170044 14.02085555 26 18 C25.34 18.66 24.68 19.32 24 20 C24 19.34 24 18.68 24 18 C23.319375 17.7525 22.63875 17.505 21.9375 17.25 C19 16 19 16 15.625 13.875 C12.05345003 11.7556187 9.15380379 11.66091398 5 12 C5.33 14.64 5.66 17.28 6 20 C4.20020865 16.75881732 3.29668735 13.59869046 2.4375 10 C2.18871094 8.96875 1.93992188 7.9375 1.68359375 6.875 C1.45800781 5.92625 1.23242188 4.9775 1 4 C0.66873185 2.66615207 0.33634736 1.33257621 0 0 Z " fill="#1EA948" transform="translate(136,232)"/>
<path d="M0 0 C0.66 1.32 1.32 2.64 2 4 C1.01 5.485 1.01 5.485 0 7 C-0.16684551 9.11957035 -0.16684551 9.11957035 0 11.375 C0.0840303 15.06633087 -0.19506167 17.6909464 -2 21 C-2.66 21.66 -3.32 22.32 -4 23 C-4.33 23.99 -4.66 24.98 -5 26 C-7.31 26 -9.62 26 -12 26 C-12 26.66 -12 27.32 -12 28 C-11.01 28.33 -10.02 28.66 -9 29 C-9.33 29.66 -9.66 30.32 -10 31 C-11.32 31 -12.64 31 -14 31 C-13.67 28.69 -13.34 26.38 -13 24 C-12.236875 23.979375 -11.47375 23.95875 -10.6875 23.9375 C-7.75123355 23.23354486 -7.75123355 23.23354486 -6.375 20.3125 C-4.55110111 15.38694253 -3.71420441 10.15856696 -2.74609375 5.01171875 C-2 2 -2 2 0 0 Z " fill="#15B452" transform="translate(49,149)"/>
<path d="M0 0 C9.03478006 2.72907991 9.03478006 2.72907991 11.33203125 5.75390625 C12.35105305 8.15839612 13 10.37704003 13 13 C12.16082031 12.97679687 11.32164063 12.95359375 10.45703125 12.9296875 C-0.79066665 12.76091175 -11.82506009 13.78578893 -23 15 C-23 14.34 -23 13.68 -23 13 C-15.5443133 11.16656665 -8.53275043 10.74834509 -0.875 10.875 C0.7028125 10.88853516 0.7028125 10.88853516 2.3125 10.90234375 C4.87524878 10.92564147 7.43749512 10.95834888 10 11 C10 9.68 10 8.36 10 7 C9.34 7 8.68 7 8 7 C8 6.34 8 5.68 8 5 C5.36 4.34 2.72 3.68 0 3 C0 2.01 0 1.02 0 0 Z " fill="#F6CA43" transform="translate(78,269)"/>
<path d="M0 0 C4.31505111 1.56910949 8.04350501 3.69803928 12 6 C13.32646156 6.6802367 14.65608877 7.35492261 16 8 C14.2984375 8.4640625 14.2984375 8.4640625 12.5625 8.9375 C9.21224901 9.62924531 9.21224901 9.62924531 8 11 C5.98035801 11.07244053 3.95832876 11.08377188 1.9375 11.0625 C0.83277344 11.05347656 -0.27195312 11.04445313 -1.41015625 11.03515625 C-2.69212891 11.01775391 -2.69212891 11.01775391 -4 11 C-2.6875 8.5 -2.6875 8.5 -1 6 C-0.01 6 0.98 6 2 6 C1.34 4.02 0.68 2.04 0 0 Z " fill="#7DD97F" transform="translate(101,252)"/>
<path d="M0 0 C4.4047716 6.6071574 4.58410848 14.27075062 4 22 C2.11001974 23.88998026 -0.49871541 23.86087741 -3.03515625 24.14453125 C-9.29157525 23.83954113 -15.19458092 21.21049554 -21 19 C-17.75372655 17.94514684 -15.61523901 18.09851064 -12.3125 18.875 C-7.54284533 19.9238988 -2.85960846 20.52971531 2 21 C1.85915204 19.20793453 1.71216299 17.41635083 1.5625 15.625 C1.48128906 14.62726563 1.40007812 13.62953125 1.31640625 12.6015625 C1.15034374 10.02072387 1.15034374 10.02072387 0 8 C-0.13415472 5.3276379 -0.04318541 2.67749512 0 0 Z " fill="#99CB39" transform="translate(138,241)"/>
<path d="M0 0 C0.33 0.99 0.66 1.98 1 3 C3.01508358 3.73323796 3.01508358 3.73323796 5 4 C4.01 4.33 3.02 4.66 2 5 C2 6.32 2 7.64 2 9 C2.556875 9.2475 3.11375 9.495 3.6875 9.75 C9.78467345 13.04576943 12.30914901 16.80653292 15 23 C14.01 22.67 13.02 22.34 12 22 C11.690625 21.030625 11.38125 20.06125 11.0625 19.0625 C10.35511863 15.94660276 10.35511863 15.94660276 8.21875 14.96875 C7.4865625 14.6490625 6.754375 14.329375 6 14 C3.69941477 12.72012503 1.40993544 11.42183515 -0.87890625 10.12109375 C-3.0866261 8.88016296 -3.0866261 8.88016296 -6 8 C-5.8125 6.125 -5.8125 6.125 -5 4 C-2.4375 2.75 -2.4375 2.75 0 2 C0 1.34 0 0.68 0 0 Z " fill="#E79293" transform="translate(32,128)"/>
<path d="M0 0 C0.33 0 0.66 0 1 0 C1 4.62 1 9.24 1 14 C1.66 14 2.32 14 3 14 C3.16435547 14.93972656 3.16435547 14.93972656 3.33203125 15.8984375 C3.56986328 17.12433594 3.56986328 17.12433594 3.8125 18.375 C3.96332031 19.18710938 4.11414062 19.99921875 4.26953125 20.8359375 C4.87544942 23.35820641 4.87544942 23.35820641 8 25 C8.29296875 27.3828125 8.29296875 27.3828125 8.1875 30.125 C8.16042969 31.03507812 8.13335937 31.94515625 8.10546875 32.8828125 C8.07066406 33.58148438 8.03585938 34.28015625 8 35 C5 34 5 34 3.4375 31 C-0.49174245 20.6805685 -0.21106333 10.86976136 0 0 Z " fill="#83D598" transform="translate(30,193)"/>
<path d="M0 0 C0.66 0 1.32 0 2 0 C2 0.66 2 1.32 2 2 C2.88751953 2.22042969 2.88751953 2.22042969 3.79296875 2.4453125 C9.74094466 4.13364498 12.55779669 5.83669503 16 11 C17.31886422 14.95659266 17.26518132 17.82339427 17 22 C16.01 22.66 15.02 23.32 14 24 C14.06960937 23.43152344 14.13921875 22.86304688 14.2109375 22.27734375 C14.52656429 17.77590449 14.39218179 14.78318546 11.5 11.1875 C8.12427786 7.71486718 4.41759161 5.90413432 0 4 C0 2.68 0 1.36 0 0 Z " fill="#AF3432" transform="translate(33,127)"/>
<path d="M0 0 C4.29 0 8.58 0 13 0 C13 4.29 13 8.58 13 13 C14.60875 13.45375 16.2175 13.9075 17.875 14.375 C22.75 15.75 22.75 15.75 25 18 C23.58194169 17.71517632 22.16559621 17.42181856 20.75 17.125 C19.96109375 16.96257812 19.1721875 16.80015625 18.359375 16.6328125 C16 16 16 16 12 14 C12 9.71 12 5.42 12 1 C8.7 1 5.4 1 2 1 C2 5.29 2 9.58 2 14 C-0.31 14.33 -2.62 14.66 -5 15 C-4.35546875 14.63261719 -3.7109375 14.26523437 -3.046875 13.88671875 C-0.24445365 11.30357082 -0.41106993 9.55737589 -0.25 5.8125 C-0.1675 3.894375 -0.085 1.97625 0 0 Z " fill="#E7C447" transform="translate(96,265)"/>
<path d="M0 0 C0.33 0 0.66 0 1 0 C1.37694145 8.62777104 0.84725089 13.72912366 -4 21 C-3.2265625 22.299375 -3.2265625 22.299375 -2.4375 23.625 C-0.79140909 27.48973517 -0.6292877 29.05920213 -2 33 C-4.5625 35.375 -4.5625 35.375 -7 37 C-6.42655063 34.13275314 -6.1385485 33.1385485 -4 31 C-4.32199934 27.02867481 -5.83579997 24.29334787 -8 21 C-7.01 19.515 -7.01 19.515 -6 18 C-5.34 18 -4.68 18 -4 18 C-3.690625 17.05125 -3.38125 16.1025 -3.0625 15.125 C-2 12 -2 12 -1 10 C-0.77377919 8.29636178 -0.59111527 6.58671299 -0.4375 4.875 C-0.35371094 3.96492188 -0.26992187 3.05484375 -0.18359375 2.1171875 C-0.12300781 1.41851562 -0.06242187 0.71984375 0 0 Z M-9 37 C-8.01 37.495 -8.01 37.495 -7 38 C-7.99 38.495 -7.99 38.495 -9 39 C-9 38.34 -9 37.68 -9 37 Z " fill="#21A94E" transform="translate(80,115)"/>
<path d="M0 0 C1.2375 0.0825 2.475 0.165 3.75 0.25 C4.44609375 0.29640625 5.1421875 0.3428125 5.859375 0.390625 C8 1 8 1 9.78125 2.98632812 C12.52124953 5.47307065 13.98970353 5.59508746 17.640625 5.828125 C18.71054688 5.90546875 19.78046875 5.9828125 20.8828125 6.0625 C21.99398437 6.124375 23.10515625 6.18625 24.25 6.25 C25.37664062 6.32734375 26.50328125 6.4046875 27.6640625 6.484375 C30.44205803 6.67271368 33.22003524 6.84393626 36 7 C28.25238497 11.13624665 18.9411729 9.24007255 10.78125 6.99609375 C6.81384631 5.57518372 3.26892799 3.67282936 0 1 C0 0.67 0 0.34 0 0 Z " fill="#39B171" transform="translate(133,265)"/>
<path d="M0 0 C0.84925049 0.00128906 1.69850098 0.00257812 2.57348633 0.00390625 C3.85993042 0.00197266 3.85993042 0.00197266 5.17236328 0 C11.61086516 0.1073592 16.92227784 1.12473993 22.57348633 4.37890625 C22.62744111 6.00354467 22.66625828 7.62869166 22.69848633 9.25390625 C22.72168945 10.15882812 22.74489258 11.06375 22.76879883 11.99609375 C22.57348633 14.37890625 22.57348633 14.37890625 20.57348633 16.37890625 C20.44848633 9.75390625 20.44848633 9.75390625 21.57348633 6.37890625 C19.09848633 5.88390625 19.09848633 5.88390625 16.57348633 5.37890625 C16.57348633 4.71890625 16.57348633 4.05890625 16.57348633 3.37890625 C13.9069817 3.20921959 11.24033107 3.04308804 8.57348633 2.87890625 C7.82969727 2.83121094 7.0859082 2.78351563 6.31958008 2.734375 C1.39386409 2.43454881 -3.49166143 2.33404396 -8.42651367 2.37890625 C-5.66616417 -0.38144326 -3.77242109 0.0668021 0 0 Z " fill="#D95142" transform="translate(57.426513671875,110.62109375)"/>
<path d="M0 0 C0.99 0 1.98 0 3 0 C4.04892238 1.63631892 5.04906703 3.30485863 6 5 C6.66 5.33 7.32 5.66 8 6 C8.45375 7.155 8.9075 8.31 9.375 9.5 C10.57589733 13.10642443 10.57589733 13.10642443 13.1875 13.9375 C13.785625 13.958125 14.38375 13.97875 15 14 C14.67 15.32 14.34 16.64 14 18 C14.66 18 15.32 18 16 18 C15.67 18.99 15.34 19.98 15 21 C9.17906616 15.53185003 3.67187263 9.12775276 0 2 C0 1.34 0 0.68 0 0 Z " fill="#9ADDA7" transform="translate(36,228)"/>
<path d="M0 0 C0.66 0.33 1.32 0.66 2 1 C1.06862408 2.29608947 0.1296434 3.58671632 -0.8125 4.875 C-1.33457031 5.59429687 -1.85664062 6.31359375 -2.39453125 7.0546875 C-4 9 -4 9 -7 11 C-7.99 11 -8.98 11 -10 11 C-10.33 12.98 -10.66 14.96 -11 17 C-11.66 17 -12.32 17 -13 17 C-13.33 21.29 -13.66 25.58 -14 30 C-14.33 30 -14.66 30 -15 30 C-15.57341555 21.47840786 -14.95372752 14.71511821 -9.31640625 7.9921875 C-6.44009889 5.03546725 -3.4176971 2.32403403 0 0 Z " fill="#8FCD2F" transform="translate(88,175)"/>
<path d="M0 0 C0.33 0 0.66 0 1 0 C0.95875 1.175625 0.9175 2.35125 0.875 3.5625 C1.64015567 11.38966622 7.52239914 17.83212513 12 24 C11.67 24.66 11.34 25.32 11 26 C8 22.25 8 22.25 8 20 C7.01 19.67 6.02 19.34 5 19 C5 18.34 5 17.68 5 17 C4.34 17 3.68 17 3 17 C3 17.99 3 18.98 3 20 C2.34 20 1.68 20 1 20 C1.57584432 17.61435923 2.22227595 15.33317216 3 13 C0.36 12.34 -2.28 11.68 -5 11 C-4.34 10.34 -3.68 9.68 -3 9 C-2.01 9 -1.02 9 0 9 C0 6.03 0 3.06 0 0 Z " fill="#AEDB76" transform="translate(104,160)"/>
<path d="M0 0 C0.33 0 0.66 0 1 0 C1 2.97 1 5.94 1 9 C-0.05058594 9.4846875 -1.10117188 9.969375 -2.18359375 10.46875 C-10.4787526 14.39512519 -17.56590369 18.27994385 -24 25 C-24.33 24.01 -24.66 23.02 -25 22 C-24.34 22 -23.68 22 -23 22 C-22.79375 21.4225 -22.5875 20.845 -22.375 20.25 C-19.39577756 15.37490873 -14.29313319 13.51232377 -9 12 C-9 11.34 -9 10.68 -9 10 C-8.4225 9.87625 -7.845 9.7525 -7.25 9.625 C-3.91827829 8.75021174 -3.91827829 8.75021174 -1 7 C-0.18129815 3.43793339 -0.18129815 3.43793339 0 0 Z " fill="#1EAC39" transform="translate(102,160)"/>
<path d="M0 0 C0.66 0.33 1.32 0.66 2 1 C1.73217366 4.21391604 1.14043499 5.82211567 -0.875 8.375 C-5.60071984 10.83237431 -9.8680746 9.82686013 -15 9 C-15 8.67 -15 8.34 -15 8 C-13.9275 7.71125 -12.855 7.4225 -11.75 7.125 C-7.68807946 5.90642384 -4.98804653 4.98804653 -2 2 C-2 2.99 -2 3.98 -2 5 C-1.34 5 -0.68 5 0 5 C0 3.35 0 1.7 0 0 Z " fill="#DAC8A3" transform="translate(75,141)"/>
<path d="M0 0 C0 3 0 3 -2 6 C-4.625 6.1875 -4.625 6.1875 -7 6 C-7.33 8.31 -7.66 10.62 -8 13 C-7.34 13.33 -6.68 13.66 -6 14 C-6.99 16.97 -7.98 19.94 -9 23 C-9.33 23 -9.66 23 -10 23 C-10.12086218 16.56744599 -9.82351864 10.38226945 -9 4 C-6.69 4 -4.38 4 -2 4 C-1.34 2.68 -0.68 1.36 0 0 Z " fill="#41B955" transform="translate(43,167)"/>
<path d="M0 0 C-1.45326453 3.31642418 -3.28171542 5.60832566 -5.8125 8.1875 C-6.47894531 8.88230469 -7.14539063 9.57710937 -7.83203125 10.29296875 C-10.26059921 12.20519253 -11.96250826 12.64483081 -15 13 C-4.15384615 0 -4.15384615 0 0 0 Z " fill="#9BC0CA" transform="translate(355,178)"/>
<path d="M0 0 C0.66 0 1.32 0 2 0 C1.57128144 5.35898195 0.70967249 8.99745863 -3 13 C-6.75 13.375 -6.75 13.375 -10 13 C-10 12.67 -10 12.34 -10 12 C-8.35 12 -6.7 12 -5 12 C-5.185625 11.38125 -5.37125 10.7625 -5.5625 10.125 C-6 8 -6 8 -5 6 C-4.01 5.67 -3.02 5.34 -2 5 C-0.78130071 2.49552484 -0.78130071 2.49552484 0 0 Z " fill="#EED72A" transform="translate(44,158)"/>
<path d="M0 0 C0.99 0.33 1.98 0.66 3 1 C2.34 1.639375 1.68 2.27875 1 2.9375 C-2.85653744 6.7829235 -6.40833422 10.90924419 -10 15 C-10.63671875 13.1640625 -10.63671875 13.1640625 -11 11 C-8.81077637 8.37293165 -6.90467255 6.43941238 -3.8125 4.9375 C-1.47139069 3.72658139 -0.95928874 2.39822186 0 0 Z " fill="#A4C4CC" transform="translate(242,216)"/>
<path d="M0 0 C0.66 1.32 1.32 2.64 2 4 C1.01 5.485 1.01 5.485 0 7 C0.061875 8.7015625 0.061875 8.7015625 0.125 10.4375 C0 14 0 14 -2 16.4375 C-2.99 17.2109375 -2.99 17.2109375 -4 18 C-5.56751686 14.86496627 -4.41474229 12.3639264 -3.6875 9 C-3.42324219 7.741875 -3.15898438 6.48375 -2.88671875 5.1875 C-2 2 -2 2 0 0 Z " fill="#27A538" transform="translate(49,149)"/>
<path d="M0 0 C0.33 0.66 0.66 1.32 1 2 C-1.16877737 6.46512989 -4.35848822 10.62249782 -8 14 C-10.875 14.9375 -10.875 14.9375 -13 15 C-9.71700087 10.0755013 -6.60418149 6.68334519 -2 3 C-1.34 2.01 -0.68 1.02 0 0 Z " fill="#A3C2CC" transform="translate(223,202)"/>
<path d="M0 0 C4.52485198 6.78727797 4.26070945 14.12078111 4 22 C3.34 22 2.68 22 2 22 C1.93941406 21.15695312 1.87882813 20.31390625 1.81640625 19.4453125 C1.73261719 18.34960938 1.64882812 17.25390625 1.5625 16.125 C1.48128906 15.03445313 1.40007812 13.94390625 1.31640625 12.8203125 C1.16998297 10.05271029 1.16998297 10.05271029 0 8 C-0.13415472 5.3276379 -0.04318541 2.67749512 0 0 Z " fill="#85CB2E" transform="translate(138,241)"/>
<path d="M0 0 C6.91108238 4.01430955 13.51164125 8.33390371 20 13 C19.34 13.66 18.68 14.32 18 15 C18 14.34 18 13.68 18 13 C17.319375 12.7525 16.63875 12.505 15.9375 12.25 C9.87560706 9.67047109 4.81532461 6.46298378 0 2 C0 1.34 0 0.68 0 0 Z " fill="#3FA970" transform="translate(142,237)"/>
<path d="M0 0 C4 1 4 1 5 2 C5.04092937 4.33297433 5.04241723 6.66705225 5 9 C3.68 9 2.36 9 1 9 C0.01 9.495 0.01 9.495 -1 10 C-0.67 6.7 -0.34 3.4 0 0 Z " fill="#EED1AE" transform="translate(70,137)"/>
<path d="M0 0 C6.79839071 -0.31620422 13.30983984 0.87323618 20 2 C20 2.66 20 3.32 20 4 C13.5944016 4.29116356 7.21885215 3.58904424 1 2 C0.67 1.34 0.34 0.68 0 0 Z " fill="#A1DFA1" transform="translate(76,262)"/>
<path d="M0 0 C1.74119298 2.61178947 3.38249442 5.24839697 5 7.9375 C5.515625 8.79214844 6.03125 9.64679688 6.5625 10.52734375 C7.79821193 12.65290258 8.93187787 14.78672771 10 17 C5.38001062 14.27000628 2.5069544 11.91748748 0 7 C-0.25 3.125 -0.25 3.125 0 0 Z " fill="#7ECE5A" transform="translate(75,220)"/>
<path d="M0 0 C0.33 0 0.66 0 1 0 C1.57446809 13.14893617 1.57446809 13.14893617 -2 18 C-4.125 19.1875 -4.125 19.1875 -6 20 C-6.33 20.99 -6.66 21.98 -7 23 C-7.33 22.34 -7.66 21.68 -8 21 C-7.01 19.515 -7.01 19.515 -6 18 C-5.34 18 -4.68 18 -4 18 C-3.690625 17.05125 -3.38125 16.1025 -3.0625 15.125 C-2 12 -2 12 -1 10 C-0.77377919 8.29636178 -0.59111527 6.58671299 -0.4375 4.875 C-0.35371094 3.96492188 -0.26992187 3.05484375 -0.18359375 2.1171875 C-0.12300781 1.41851562 -0.06242187 0.71984375 0 0 Z " fill="#3E9140" transform="translate(80,115)"/>
<path d="M0 0 C9.08251121 2.74349776 9.08251121 2.74349776 11.33203125 5.82421875 C12.125 7.75 12.125 7.75 13 11 C12.01 11 11.02 11 10 11 C10 9.68 10 8.36 10 7 C9.34 7 8.68 7 8 7 C8 6.34 8 5.68 8 5 C5.36 4.34 2.72 3.68 0 3 C0 2.01 0 1.02 0 0 Z " fill="#F4CC55" transform="translate(78,269)"/>
<path d="M0 0 C0.99 0.33 1.98 0.66 3 1 C-0.96 4.96 -4.92 8.92 -9 13 C-9.33 12.01 -9.66 11.02 -10 10 C-9.34 10 -8.68 10 -8 10 C-8 9.34 -8 8.68 -8 8 C-7.34 7.67 -6.68 7.34 -6 7 C-5.71125 6.38125 -5.4225 5.7625 -5.125 5.125 C-3.77564736 2.57622278 -2.49000526 1.43363939 0 0 Z " fill="#A8C1CA" transform="translate(351,212)"/>
<path d="M0 0 C2.9552728 2.61778794 4.75832727 5.67583335 6.75 9.0625 C7.38421875 10.12597656 8.0184375 11.18945312 8.671875 12.28515625 C9.11015625 13.18105469 9.5484375 14.07695312 10 15 C9.67 15.66 9.34 16.32 9 17 C6.5 15.375 6.5 15.375 4 13 C3.6875 9.75 3.6875 9.75 4 7 C3.34 7 2.68 7 2 7 C1.34 4.69 0.68 2.38 0 0 Z " fill="#CEDA6F" transform="translate(116,186)"/>
<path d="M0 0 C-3 2 -3 2 -5.5625 2.4375 C-8.35426675 2.78821951 -8.35426675 2.78821951 -10 6 C-12.2818314 7.48319041 -14.56738224 8.78369112 -17 10 C-15.13381688 4.96130559 -11.00853485 2.05208969 -6.375 -0.375 C-3.79798323 -1.05316231 -2.47260564 -0.91577987 0 0 Z " fill="#F4CA54" transform="translate(57,272)"/>
<path d="M0 0 C0.556875 0.28875 1.11375 0.5775 1.6875 0.875 C2.8321875 1.431875 2.8321875 1.431875 4 2 C4.70125 2.350625 5.4025 2.70125 6.125 3.0625 C9.87490636 4.28529555 13.41799051 4.21548905 17.3125 4.125 C18.42334961 4.11146484 18.42334961 4.11146484 19.55664062 4.09765625 C21.37123467 4.07424213 23.18566071 4.03837615 25 4 C24.67 4.66 24.34 5.32 24 6 C21.4580411 6.05434116 18.91726318 6.0938339 16.375 6.125 C15.66214844 6.14175781 14.94929687 6.15851563 14.21484375 6.17578125 C9.7387836 6.21684602 6.22050722 5.69086567 2 4 C2 3.34 2 2.68 2 2 C1.34 2 0.68 2 0 2 C0 1.34 0 0.68 0 0 Z " fill="#ADCCD3" transform="translate(235,264)"/>
<path d="M0 0 C2.475 0.495 2.475 0.495 5 1 C6.31886422 4.95659266 6.26518132 7.82339427 6 12 C5.01 12.66 4.02 13.32 3 14 C3.03480469 13.40832031 3.06960937 12.81664062 3.10546875 12.20703125 C3.27563175 7.2398924 3.16855209 4.09271311 0 0 Z " fill="#AB4943" transform="translate(44,137)"/>
<path d="M0 0 C0.33 0 0.66 0 1 0 C1 4.62 1 9.24 1 14 C1.66 14 2.32 14 3 14 C3.33 16.64 3.66 19.28 4 22 C2.015625 20.578125 2.015625 20.578125 0 18 C-0.50627389 14.90543827 -0.37696402 11.87526825 -0.25 8.75 C-0.23195313 7.90953125 -0.21390625 7.0690625 -0.1953125 6.203125 C-0.14830798 4.13492605 -0.07656724 2.06731559 0 0 Z " fill="#75CB8E" transform="translate(30,193)"/>
<path d="M0 0 C0.33 0 0.66 0 1 0 C1 1.65 1 3.3 1 5 C2.98 5 4.96 5 7 5 C7 4.34 7 3.68 7 3 C7.99 3.33 8.98 3.66 10 4 C7.12835434 6.70272533 5.69008159 7.94791837 1.6875 8.25 C0.800625 8.1675 -0.08625 8.085 -1 8 C-0.67 5.36 -0.34 2.72 0 0 Z " fill="#4E8296" transform="translate(326,225)"/>
<path d="M0 0 C0.66 0.33 1.32 0.66 2 1 C-3.96583144 9.81548975 -3.96583144 9.81548975 -9 11 C-6.8227865 5.79887886 -4.39291786 3.31909349 0 0 Z " fill="#9CCD24" transform="translate(88,175)"/>
<path d="M0 0 C2.9719385 1.12451727 5.33440687 2.22293791 8 4 C8 4.99 8 5.98 8 7 C6.02 6.34 4.04 5.68 2 5 C1.34 5.66 0.68 6.32 0 7 C0 4.69 0 2.38 0 0 Z " fill="#3CAC67" transform="translate(81,116)"/>
<path d="M0 0 C2.69313091 0.27321618 3.74162892 0.69779218 5.51953125 2.77734375 C5.94621094 3.49019531 6.37289062 4.20304688 6.8125 4.9375 C7.25207031 5.64777344 7.69164063 6.35804688 8.14453125 7.08984375 C8.42683594 7.72019531 8.70914063 8.35054687 9 9 C8.67 9.66 8.34 10.32 8 11 C5 7.25 5 7.25 5 5 C4.01 4.67 3.02 4.34 2 4 C2 3.34 2 2.68 2 2 C1.34 2 0.68 2 0 2 C0 2.99 0 3.98 0 5 C-0.66 5 -1.32 5 -2 5 C-1.125 1.125 -1.125 1.125 0 0 Z " fill="#BFD651" transform="translate(107,175)"/>
<path d="M0 0 C4.10083191 5.21924061 5.26060773 8.22419899 5 15 C4.34 15 3.68 15 3 15 C2.71125 13.80375 2.4225 12.6075 2.125 11.375 C1.2475666 7.85273164 0.19979363 4.42798179 -1 1 C-0.67 0.67 -0.34 0.34 0 0 Z " fill="#27AA60" transform="translate(97,132)"/>
<path d="M0 0 C7.34117647 0.48941176 7.34117647 0.48941176 10.5 2.9375 C12 5 12 5 12 7 C7.69235185 5.43358249 3.93828536 3.31663844 0 1 C0 0.67 0 0.34 0 0 Z " fill="#5BBD80" transform="translate(133,265)"/>
<path d="M0 0 C0.66 0.33 1.32 0.66 2 1 C-0.31779067 4.80779895 -1.84255748 7.27967896 -6 9 C-6.33 9.66 -6.66 10.32 -7 11 C-7.66 11 -8.32 11 -9 11 C-8.34 9.68 -7.68 8.36 -7 7 C-6.34 7 -5.68 7 -5 7 C-4.34 5.68 -3.68 4.36 -3 3 C-2.34 3 -1.68 3 -1 3 C-0.67 2.01 -0.34 1.02 0 0 Z " fill="#ABC4CF" transform="translate(287,138)"/>
<path d="M0 0 C4.12751449 0.60698743 7.3321148 2.03810791 11 4 C10.01 5.485 10.01 5.485 9 7 C8.01 7 7.02 7 6 7 C5.67 5.68 5.34 4.36 5 3 C3.35 2.67 1.7 2.34 0 2 C0 1.34 0 0.68 0 0 Z " fill="#9FBEC8" transform="translate(352,113)"/>
<path d="M0 0 C0.33 0.66 0.66 1.32 1 2 C0.34 2 -0.32 2 -1 2 C-1.33 3.65 -1.66 5.3 -2 7 C-6 7 -6 7 -9 5 C-6.03 3.35 -3.06 1.7 0 0 Z " fill="#FBC41D" transform="translate(45,156)"/>
<path d="M0 0 C3.625 0.375 3.625 0.375 7 1 C4.92446352 1.5534764 3.15634036 2 1 2 C-0.91847864 4.87771795 -2.50079488 7.88626628 -4 11 C-5 8 -5 8 -3.6875 4.9375 C-2 2 -2 2 0 0 Z " fill="#F5D470" transform="translate(25,136)"/>
<path d="M0 0 C1.32 0 2.64 0 4 0 C4 0.66 4 1.32 4 2 C4.66 2 5.32 2 6 2 C6 3.32 6 4.64 6 6 C3.83125748 5.49396008 2.00032373 5.00016187 0 4 C0 2.68 0 1.36 0 0 Z " fill="#EC80AD" transform="translate(34,133)"/>
<path d="M0 0 C0.33 0.66 0.66 1.32 1 2 C1.556875 1.814375 2.11375 1.62875 2.6875 1.4375 C5.399133 0.92448835 7.34371039 1.3359276 10 2 C9.67 2.66 9.34 3.32 9 4 C5.37 4 1.74 4 -2 4 C-1.34 2.68 -0.68 1.36 0 0 Z " fill="#78DA8C" transform="translate(99,259)"/>
<path d="M0 0 C2.31 0.33 4.62 0.66 7 1 C7 1.66 7 2.32 7 3 C7.66 3.33 8.32 3.66 9 4 C8.01 4 7.02 4 6 4 C6 3.34 6 2.68 6 2 C4.68 2 3.36 2 2 2 C2 4.31 2 6.62 2 9 C-0.29013653 5.5647952 -0.17842973 4.014669 0 0 Z " fill="#E8CD40" transform="translate(64,258)"/>
<path d="M0 0 C4.81938524 -0.23509196 8.46298506 0.54815522 13 2 C13 2.99 13 3.98 13 5 C10.03 4.505 10.03 4.505 7 4 C7 3.34 7 2.68 7 2 C4.69 1.67 2.38 1.34 0 1 C0 0.67 0 0.34 0 0 Z " fill="#9BD364" transform="translate(64,257)"/>
<path d="M0 0 C2.0625 0.4375 2.0625 0.4375 4 1 C1.58443874 4.19199167 -0.68003538 6.74716687 -4 9 C-4 7.68 -4 6.36 -4 5 C-3.34 5 -2.68 5 -2 5 C-1.7834375 4.0409375 -1.7834375 4.0409375 -1.5625 3.0625 C-1 1 -1 1 0 0 Z " fill="#ACC5CD" transform="translate(250,207)"/>
<path d="M0 0 C1.65 0 3.3 0 5 0 C4.04578192 1.14926266 3.08647955 2.29430541 2.125 3.4375 C1.59132813 4.07558594 1.05765625 4.71367187 0.5078125 5.37109375 C-1 7 -1 7 -3 8 C-2.37240135 5.07120629 -1.41377341 2.63904371 0 0 Z " fill="#A0BFC6" transform="translate(293,268)"/>
<path d="M0 0 C-0.33 0.99 -0.66 1.98 -1 3 C-3.06640625 3.94921875 -3.06640625 3.94921875 -5.5625 4.6875 C-6.38878906 4.93886719 -7.21507813 5.19023437 -8.06640625 5.44921875 C-8.70449219 5.63097656 -9.34257813 5.81273437 -10 6 C-10 5.34 -10 4.68 -10 4 C-3.375 0 -3.375 0 0 0 Z " fill="#F5CA4C" transform="translate(83,282)"/>
<path d="M0 0 C0.99 0.33 1.98 0.66 3 1 C0.69 3.31 -1.62 5.62 -4 8 C-4.33 6.68 -4.66 5.36 -5 4 C-4.34 4 -3.68 4 -3 4 C-2.67 3.01 -2.34 2.02 -2 1 C-1.34 0.67 -0.68 0.34 0 0 Z " fill="#A3C0C9" transform="translate(303,260)"/>
<path d="M0 0 C3.44270451 1.53009089 6.18925822 3.4931222 9 6 C9.33 6.99 9.66 7.98 10 9 C4.70499087 7.63842622 2.76254467 4.39656045 0 0 Z " fill="#91D45C" transform="translate(91,243)"/>
<path d="M0 0 C1.31225809 3.93677426 0.3393954 5.7794262 -0.9375 9.6875 C-1.50791016 11.45673828 -1.50791016 11.45673828 -2.08984375 13.26171875 C-2.39019531 14.16535156 -2.69054687 15.06898438 -3 16 C-3.33 16 -3.66 16 -4 16 C-3.40546697 4.29384966 -3.40546697 4.29384966 0 0 Z " fill="#34B645" transform="translate(76,183)"/>
<path d="M0 0 C0.66 0.33 1.32 0.66 2 1 C0.68 2.65 -0.64 4.3 -2 6 C-6.875 4.25 -6.875 4.25 -8 2 C-5.36 2 -2.72 2 0 2 C0 1.34 0 0.68 0 0 Z " fill="#DC4434" transform="translate(75,130)"/>
<path d="M0 0 C0.66 0 1.32 0 2 0 C2 0.66 2 1.32 2 2 C2.763125 2.12375 3.52625 2.2475 4.3125 2.375 C7 3 7 3 10 5 C3.51707705 5.3669579 3.51707705 5.3669579 1.0625 3.625 C0 2 0 2 0 0 Z " fill="#9CC4CD" transform="translate(292,207)"/>
<path d="M0 0 C0.66 0.99 1.32 1.98 2 3 C-0.97 5.475 -0.97 5.475 -4 8 C-4 6.68 -4 5.36 -4 4 C-3.34 4 -2.68 4 -2 4 C-1.34 2.68 -0.68 1.36 0 0 Z " fill="#ABC4CF" transform="translate(245,180)"/>
<path d="M0 0 C0.66 0.33 1.32 0.66 2 1 C1.3125 3.4375 1.3125 3.4375 0 6 C-2.625 6.8125 -2.625 6.8125 -5 7 C-3.625 4.5 -3.625 4.5 -2 2 C-1.34 2 -0.68 2 0 2 C0 1.34 0 0.68 0 0 Z " fill="#0DAB48" transform="translate(47,164)"/>
<path d="M0 0 C2.475 0.495 2.475 0.495 5 1 C5.33 2.65 5.66 4.3 6 6 C4.68 6.33 3.36 6.66 2 7 C2.04125 6.21625 2.0825 5.4325 2.125 4.625 C2.28728734 1.83883881 2.28728734 1.83883881 0 0 Z " fill="#F0BE2B" transform="translate(118,283)"/>
<path d="M0 0 C2.0625 0.4375 2.0625 0.4375 4 1 C3.34 1 2.68 1 2 1 C1.67 2.65 1.34 4.3 1 6 C-0.32 5.67 -1.64 5.34 -3 5 C-1.125 1.125 -1.125 1.125 0 0 Z " fill="#F9C14D" transform="translate(31,164)"/>
<path d="M0 0 C0.33 0.66 0.66 1.32 1 2 C-1.17508418 6.69360269 -1.17508418 6.69360269 -4.1875 7.8125 C-4.785625 7.874375 -5.38375 7.93625 -6 8 C-4.625 5.5 -4.625 5.5 -3 3 C-2.34 3 -1.68 3 -1 3 C-0.67 2.01 -0.34 1.02 0 0 Z " fill="#A0C2CC" transform="translate(300,125)"/>
<path d="M0 0 C-1 3 -1 3 -3.875 4.6875 C-7 6 -7 6 -10 6 C-7.35570758 3.077361 -4.105808 0 0 0 Z " fill="#E66560" transform="translate(48,113)"/>
<path d="M0 0 C0.99 0 1.98 0 3 0 C1.50902342 3.7952131 -0.75700849 5.61042731 -4 8 C-4 7.01 -4 6.02 -4 5 C-3.34 5 -2.68 5 -2 5 C-1.34 3.35 -0.68 1.7 0 0 Z " fill="#A5C6CD" transform="translate(365,197)"/>
<path d="M0 0 C0.66 0.33 1.32 0.66 2 1 C0.02 3.97 -1.96 6.94 -4 10 C-5 7 -5 7 -3.6875 4.3125 C-3.130625 3.549375 -2.57375 2.78625 -2 2 C-1.34 2 -0.68 2 0 2 C0 1.34 0 0.68 0 0 Z " fill="#AAC3C9" transform="translate(378,183)"/>
<path d="M0 0 C2 3 2 3 1.7578125 5.26171875 C1.54898437 6.06222656 1.34015625 6.86273438 1.125 7.6875 C0.92132813 8.49574219 0.71765625 9.30398437 0.5078125 10.13671875 C0.25644531 11.05904297 0.25644531 11.05904297 0 12 C-0.33 12 -0.66 12 -1 12 C-2.11658501 7.31034294 -1.80619523 4.46236469 0 0 Z " fill="#97BBC6" transform="translate(264,164)"/>
<path d="M0 0 C1.60332791 -0.08121924 3.20784026 -0.13929134 4.8125 -0.1875 C6.15248047 -0.23970703 6.15248047 -0.23970703 7.51953125 -0.29296875 C10.41647515 0.04918998 11.22555028 0.75393573 13 3 C8.62065881 2.48041715 4.31196609 1.94324258 0 1 C0 0.67 0 0.34 0 0 Z " fill="#FDAC91" transform="translate(57,132)"/>
<path d="M0 0 C2.52588702 2.36292656 3.88820837 3.66462511 5 7 C3.68 7 2.36 7 1 7 C0.67 4.69 0.34 2.38 0 0 Z " fill="#4FC080" transform="translate(93,125)"/>
<path d="M0 0 C-6.75 4 -6.75 4 -9 4 C-8.67 2.68 -8.34 1.36 -8 0 C-4.71303767 -0.79953138 -3.28976808 -1.09658936 0 0 Z " fill="#319E5F" transform="translate(180,268)"/>
<path d="M0 0 C0.99 0.33 1.98 0.66 3 1 C1.68 2.65 0.36 4.3 -1 6 C-1.99 5.67 -2.98 5.34 -4 5 C-3.34 4.67 -2.68 4.34 -2 4 C-0.86649466 1.98330173 -0.86649466 1.98330173 0 0 Z " fill="#87C4CD" transform="translate(228,197)"/>
<path d="M0 0 C0.66 0 1.32 0 2 0 C1.375 6.625 1.375 6.625 -2 10 C-1.34 6.7 -0.68 3.4 0 0 Z " fill="#D3D631" transform="translate(44,158)"/>
<path d="M0 0 C0 1.65 0 3.3 0 5 C-0.66 5 -1.32 5 -2 5 C-2.33 4.34 -2.66 3.68 -3 3 C-4.65 3.33 -6.3 3.66 -8 4 C-3.375 0 -3.375 0 0 0 Z " fill="#DD7515" transform="translate(47,151)"/>
<path d="M0 0 C3.3 0 6.6 0 10 0 C10.33 0.66 10.66 1.32 11 2 C10.34 2 9.68 2 9 2 C8.67 2.99 8.34 3.98 8 5 C7.34 4.01 6.68 3.02 6 2 C2.93443402 1.26656572 2.93443402 1.26656572 0 1 C0 0.67 0 0.34 0 0 Z " fill="#E1BBA3" transform="translate(61,135)"/>
<path d="M0 0 C2.64 0.66 5.28 1.32 8 2 C7.34 2.66 6.68 3.32 6 4 C3.375 3.625 3.375 3.625 1 3 C0.67 2.01 0.34 1.02 0 0 Z " fill="#F4D365" transform="translate(40,283)"/>
<path d="M0 0 C0.66 0.66 1.32 1.32 2 2 C1.34 2 0.68 2 0 2 C0.5259375 2.86625 0.5259375 2.86625 1.0625 3.75 C2.14917407 6.35801776 1.93065133 7.39417629 1 10 C1 9.34 1 8.68 1 8 C0.34 8 -0.32 8 -1 8 C-1.04241723 5.66705225 -1.04092937 3.33297433 -1 1 C-0.67 0.67 -0.34 0.34 0 0 Z " fill="#9AD23C" transform="translate(136,230)"/>
<path d="M0 0 C1.32 0 2.64 0 4 0 C4.33 1.98 4.66 3.96 5 6 C4.01 6.66 3.02 7.32 2 8 C2.33 5.69 2.66 3.38 3 1 C2.01 0.67 1.02 0.34 0 0 Z " fill="#74A4B4" transform="translate(259,171)"/>
<path d="M0 0 C0.66 0 1.32 0 2 0 C1.34 1.32 0.68 2.64 0 4 C-0.66 4 -1.32 4 -2 4 C-2.33 4.99 -2.66 5.98 -3 7 C-3.33 5.68 -3.66 4.36 -4 3 C-2.68 2.67 -1.36 2.34 0 2 C0 1.34 0 0.68 0 0 Z " fill="#9DBAC0" transform="translate(297,162)"/>
<path d="M0 0 C5.66153846 2.46153846 5.66153846 2.46153846 7.375 5.1875 C7.58125 5.785625 7.7875 6.38375 8 7 C7.01 7 6.02 7 5 7 C4.67 6.01 4.34 5.02 4 4 C1.99983534 2.79117904 1.99983534 2.79117904 0 2 C0 1.34 0 0.68 0 0 Z " fill="#B72619" transform="translate(39,130)"/>
<path d="M0 0 C0.66 0.33 1.32 0.66 2 1 C1.67 1.66 1.34 2.32 1 3 C0.34 3 -0.32 3 -1 3 C-1 3.66 -1 4.32 -1 5 C-2.65 5.33 -4.3 5.66 -6 6 C-5.34 5.67 -4.68 5.34 -4 5 C-3.67 4.01 -3.34 3.02 -3 2 C-2.01 1.34 -1.02 0.68 0 0 Z " fill="#B5C8D4" transform="translate(307,119)"/>
</svg>
