<?xml version="1.0" encoding="UTF-8"?>
<svg version="1.1" xmlns="http://www.w3.org/2000/svg" width="221" height="228">
<path d="M0 0 C72.93 0 145.86 0 221 0 C221 75.24 221 150.48 221 228 C148.07 228 75.14 228 0 228 C0 152.76 0 77.52 0 0 Z " fill="#FDFDFD" transform="translate(0,0)"/>
<path d="M0 0 C1.37260986 0.01135986 1.37260986 0.01135986 2.77294922 0.02294922 C21.88458521 0.48125381 35.67633016 8.25826856 48.875 21.4375 C49.47183594 22.02273437 50.06867188 22.60796875 50.68359375 23.2109375 C56.10695627 29.0017365 62.51442139 38.49093216 63.875 46.4375 C62.71742188 46.53546875 61.55984375 46.6334375 60.3671875 46.734375 C58.82803881 46.88453585 57.28898068 47.03562691 55.75 47.1875 C54.98945313 47.249375 54.22890625 47.31125 53.4453125 47.375 C46.84457465 48.05783495 42.86706238 50.02903661 38.5390625 55.26171875 C34.75162918 62.48984853 36.03076344 71.58042943 38.3190918 79.19067383 C43.21370684 93.54458434 50.84325434 109.39201155 59.80859375 121.6171875 C61.875 124.4375 61.875 124.4375 61.875 126.4375 C59.88169158 127.78081654 57.88115134 129.11344012 55.875 130.4375 C53.60075173 133.84887241 53.48834617 135.55982967 53.1640625 139.59765625 C53.05586182 140.85416992 52.94766113 142.11068359 52.83618164 143.40527344 C52.75450241 144.40681458 52.75450241 144.40681458 52.6711731 145.42858887 C51.75141758 156.55879488 50.58933752 167.63971773 48.9375 178.6875 C48.79199707 179.71367432 48.64649414 180.73984863 48.49658203 181.79711914 C47.08744103 190.86259295 45.47253502 200.54610353 37.73828125 206.29296875 C30.05157817 211.01457044 21.80069384 212.38257347 12.875 211.4375 C6.80129907 208.455865 2.96638776 203.76732755 0.46147156 197.49432373 C-1.74431392 189.7583784 -1.26656734 181.08886943 -1.30078125 173.109375 C-1.32395283 170.98957311 -1.34806902 168.86978137 -1.37304688 166.75 C-1.40825905 163.45630765 -1.43759914 160.16299924 -1.45092773 156.86914062 C-1.46641605 153.6571019 -1.50658811 150.44613043 -1.55078125 147.234375 C-1.54887283 146.25507019 -1.54696442 145.27576538 -1.54499817 144.26678467 C-1.6541543 138.14430866 -2.48928178 134.42263775 -6.125 129.4375 C-9.56950737 127.14116176 -12.06312283 126.89733515 -16.125 126.4375 C-15.48333875 122.73157036 -14.45423917 119.41365581 -13.09375 115.91015625 C-12.69542969 114.87052734 -12.29710937 113.83089844 -11.88671875 112.75976562 C-11.04688771 110.58998543 -10.20574569 108.4207122 -9.36328125 106.25195312 C-8.96496094 105.21103516 -8.56664062 104.17011719 -8.15625 103.09765625 C-7.79080078 102.15543213 -7.42535156 101.21320801 -7.04882812 100.24243164 C-3.59059702 89.74253282 -4.58329279 78.18419764 -6.375 67.4375 C-6.48424805 66.74422607 -6.59349609 66.05095215 -6.70605469 65.33666992 C-7.72411891 59.79810662 -9.54858782 54.72700659 -13.87890625 50.87890625 C-21.91389146 46.97421581 -29.2806745 47.62379123 -37.625 50.375 C-39.46305993 51.04976147 -41.29729051 51.7351857 -43.125 52.4375 C-44.61 52.9325 -44.61 52.9325 -46.125 53.4375 C-47.19024608 40.38823548 -41.80859751 25.96642138 -34.01953125 15.6484375 C-24.70221339 4.77556055 -14.3205542 -0.16760076 0 0 Z " fill="#336791" transform="translate(115.125,9.5625)"/>
<path d="M0 0 C-1.34609411 2.85727522 -2.90080472 5.31992911 -4.75 7.875 C-15.90615938 24.51377071 -17.45503237 41.85316833 -17.6875 61.25 C-17.72077932 63.11851182 -17.75527814 64.98700233 -17.79101562 66.85546875 C-17.87341616 71.3809649 -17.92821021 75.90622058 -17.97079468 80.43225098 C-17.99914657 82.92496576 -18.04544482 85.4168076 -18.0949707 87.90917969 C-18.11594991 89.41861221 -18.13640644 90.92805212 -18.15625 92.4375 C-18.17880859 93.74074219 -18.20136719 95.04398437 -18.22460938 96.38671875 C-17.79170698 103.35080071 -15.31060079 110.17753652 -10.125 115 C-9.42375 115.66 -8.7225 116.32 -8 117 C-8.31074822 120.34392106 -9.56761673 121.86096792 -12 124.0625 C-15.14859317 127.05592636 -17.85789112 130.22478951 -20.5625 133.625 C-27.0519943 141.5968661 -27.0519943 141.5968661 -31 144 C-35.1839963 144.14680689 -37.19021449 143.62758377 -40.5 141.0625 C-57.59626606 120.11957407 -64.43268944 92.69899985 -69.49609375 66.58496094 C-69.96508797 64.17909332 -70.4633766 61.78124785 -70.96875 59.3828125 C-74.50259829 41.99612194 -75.05679997 24.40345312 -65 9 C-64.1646875 7.6696875 -64.1646875 7.6696875 -63.3125 6.3125 C-46.50583416 -10.49416584 -20.53733885 -6.07144979 0 0 Z " fill="#336791" transform="translate(80,15)"/>
<path d="M0 0 C1.41469881 1.18619029 2.8114352 2.39420116 4.1875 3.625 C4.84878906 4.20507812 5.51007813 4.78515625 6.19140625 5.3828125 C12.20655453 10.98355599 14.32107324 15.70674265 14.75 23.875 C14.03470874 55.31671593 -0.20025884 85.05097249 -15.8125 111.625 C-16.8025 111.13 -16.8025 111.13 -17.8125 110.625 C-17.38556099 109.71920197 -17.38556099 109.71920197 -16.94999695 108.79510498 C-14.16039109 102.45600418 -13.26895738 97.33432718 -13.45703125 90.453125 C-13.46506271 89.52707458 -13.47309418 88.60102417 -13.48136902 87.64691162 C-13.5100756 84.72232605 -13.56626619 81.79912219 -13.625 78.875 C-13.66767724 75.93678058 -13.70454113 72.99859681 -13.73649597 70.0602417 C-13.75799545 68.24149495 -13.78652646 66.42281321 -13.82319641 64.60430908 C-13.89323561 60.13776878 -13.71213951 56.02513852 -12.8125 51.625 C-10.91999191 37.47996527 -17.33256373 25.63214087 -25.6875 14.625 C-32.99204237 5.48629583 -41.29986765 -1.01198995 -51.3203125 -6.84375 C-52.14273438 -7.3490625 -52.96515625 -7.854375 -53.8125 -8.375 C-53.8125 -8.705 -53.8125 -9.035 -53.8125 -9.375 C-35.61549009 -12.41594417 -15.19407312 -11.47939311 0 0 Z " fill="#336791" transform="translate(198.8125,17.375)"/>
<path d="M0 0 C5.54043039 4.53307941 6.14521848 11.94424124 7.0625 18.6875 C7.97422142 32.29528241 5.43311145 43.56302535 0.75 56.25 C0.37166016 57.34119141 -0.00667969 58.43238281 -0.39648438 59.55664062 C-0.96786133 61.10834961 -0.96786133 61.10834961 -1.55078125 62.69140625 C-1.88891846 63.62799072 -2.22705566 64.5645752 -2.57543945 65.52954102 C-3.9375 67.6875 -3.9375 67.6875 -6.4621582 68.52148438 C-11.94842045 68.88943568 -16.49305054 66.29485976 -20.6875 62.9375 C-25.78732983 58.25683427 -28.75221227 52.74203144 -29.0703125 45.78125 C-29.04051287 32.0734193 -28.48024991 18.38327421 -27.9375 4.6875 C-26.21148621 3.86832358 -24.4815353 3.05743984 -22.75 2.25 C-21.78707031 1.79753906 -20.82414062 1.34507813 -19.83203125 0.87890625 C-13.61507957 -1.68002798 -6.2655973 -2.7995222 0 0 Z " fill="#336791" transform="translate(96.9375,65.3125)"/>
<path d="M0 0 C1.27230469 0.00902344 2.54460937 0.01804688 3.85546875 0.02734375 C5.31919922 0.04474609 5.31919922 0.04474609 6.8125 0.0625 C6.7388623 0.75077881 6.66522461 1.43905762 6.58935547 2.14819336 C5.92998075 9.25145742 5.75145779 16.24972816 5.8203125 23.37890625 C5.82818787 24.28990082 5.83606323 25.20089539 5.84417725 26.13949585 C5.88068042 29.93669535 5.92326908 33.73362033 5.98388672 37.53051758 C6.02611132 40.33418368 6.04960116 43.13751016 6.0703125 45.94140625 C6.08893341 46.79867813 6.10755432 47.65595001 6.1267395 48.53919983 C6.15246253 54.48620603 6.15246253 54.48620603 4.29638672 57.63256836 C3.8067041 58.1044458 3.31702148 58.57632324 2.8125 59.0625 C-0.1875 53.0625 -0.1875 53.0625 -1.12792969 51.17285156 C-2.83700809 47.74279074 -4.56433359 44.32416116 -6.328125 40.921875 C-12.16244256 29.61386291 -17.13631719 19.20360675 -15.1875 6.0625 C-10.95941524 0.12032682 -6.92874852 -0.0635665 0 0 Z " fill="#326791" transform="translate(173.1875,62.9375)"/>
<path d="M0 0 C2.66039294 0.55080599 3.81034184 0.81688178 5.8125 2.75 C7 5 7 5 6.9375 7.4375 C4.68182411 13.6030141 0.6188174 16.1905913 -5 19 C-8.61649725 20.21077479 -12.14474356 20.16726117 -15.9375 20.1875 C-17.74541016 20.20876953 -17.74541016 20.20876953 -19.58984375 20.23046875 C-22.86019062 20.00944874 -25.06816515 19.40750326 -28 18 C-27.67 17.34 -27.34 16.68 -27 16 C-24.95535807 15.46763257 -22.88737884 15.0235643 -20.8125 14.625 C-10.93383966 12.42974215 -6.35674573 7.55065229 0 0 Z " fill="#346892" transform="translate(100,142)"/>
<path d="M0 0 C2.94131891 0.98043964 4.82501665 1.11621202 7.88671875 1.09765625 C8.82451172 1.09443359 9.76230469 1.09121094 10.72851562 1.08789062 C11.70498047 1.07951172 12.68144531 1.07113281 13.6875 1.0625 C15.16959961 1.05573242 15.16959961 1.05573242 16.68164062 1.04882812 C19.12115474 1.03704303 21.56054689 1.02059011 24 1 C17.48595234 7.85243975 8.99599993 9.71068758 -0.23828125 10.15625 C-8.52864277 10.23567861 -8.52864277 10.23567861 -11 9 C-11.36658354 2.52369077 -11.36658354 2.52369077 -9.6875 0.125 C-5.81594218 -2.45603855 -4.00862515 -1.80388132 0 0 Z " fill="#376A93" transform="translate(186,143)"/>
<path d="M0 0 C1.258125 -0.04125 2.51625 -0.0825 3.8125 -0.125 C4.52019531 -0.14820312 5.22789063 -0.17140625 5.95703125 -0.1953125 C8 0 8 0 11 2 C10.42655063 4.86724686 10.1385485 5.8614515 8 8 C5.625 8.375 5.625 8.375 3 8 C0.625 6.25 0.625 6.25 -1 4 C-0.75 1.75 -0.75 1.75 0 0 Z " fill="#F8F9FA" transform="translate(87,68)"/>
<path d="M0 0 C0.33 0.99 0.66 1.98 1 3 C-2.269813 6.87533393 -2.269813 6.87533393 -5.5625 7.4375 C-8.36248966 6.93493775 -9.26107595 6.19653565 -11 4 C-10.67 3.01 -10.34 2.02 -10 1 C-6.78548731 -0.60725635 -3.56387464 -0.05748185 0 0 Z " fill="#EFF2F5" transform="translate(173,66)"/>
<path d="M0 0 C9.92205323 -0.58365019 9.92205323 -0.58365019 14 3 C15.3125 5.6875 15.3125 5.6875 16 8 C14.02 8.99 14.02 8.99 12 10 C12 8.68 12 7.36 12 6 C9.59454362 4.79727181 8.05003047 4.89928528 5.375 4.9375 C4.55773437 4.94652344 3.74046875 4.95554687 2.8984375 4.96484375 C2.27195312 4.97644531 1.64546875 4.98804687 1 5 C0.67 3.35 0.34 1.7 0 0 Z " fill="#46759B" transform="translate(85,64)"/>
<path d="M0 0 C-4.35296911 2.21452021 -8.08004634 2.07786638 -12.8125 1.625 C-13.85180664 1.53992188 -13.85180664 1.53992188 -14.91210938 1.453125 C-16.60898446 1.31269396 -18.30465248 1.15780593 -20 1 C-20 0.67 -20 0.34 -20 0 C-17.41703983 -0.19522373 -14.83395921 -0.38144403 -12.25 -0.5625 C-11.52039063 -0.61857422 -10.79078125 -0.67464844 -10.0390625 -0.73242188 C-6.45046349 -0.97709908 -3.44972775 -0.99666259 0 0 Z " fill="#235F8C" transform="translate(210,145)"/>
<path d="M0 0 C2.97 0 5.94 0 9 0 C8.01 0.66 7.02 1.32 6 2 C6.66 2.66 7.32 3.32 8 4 C5.69 4.33 3.38 4.66 1 5 C0.67 3.35 0.34 1.7 0 0 Z " fill="#47759B" transform="translate(85,64)"/>
<path d="M0 0 C3.625 0.375 3.625 0.375 7 1 C6.67 1.66 6.34 2.32 6 3 C3.36 2.67 0.72 2.34 -2 2 C-1.34 1.34 -0.68 0.68 0 0 Z " fill="#2C648F" transform="translate(91,65)"/>
</svg>
