<?xml version="1.0" encoding="UTF-8"?>
<svg version="1.1" xmlns="http://www.w3.org/2000/svg" width="1387" height="1601">
<path d="M0 0 C2.3581543 1.16064453 2.3581543 1.16064453 4.82421875 2.6328125 C6.22293213 3.45930298 6.22293213 3.45930298 7.64990234 4.30249023 C8.65230957 4.90391846 9.6547168 5.50534668 10.6875 6.125 C12.86025981 7.41086159 15.03345157 8.69599352 17.20703125 9.98046875 C18.89046631 10.97892822 18.89046631 10.97892822 20.60791016 11.99755859 C26.00694148 15.18475126 31.4405284 18.31124675 36.875 21.4375 C39.05994368 22.69653156 41.24483925 23.95564661 43.4296875 25.21484375 C45.05729004 26.15239502 45.05729004 26.15239502 46.71777344 27.10888672 C52.14659942 30.23680148 57.57319281 33.36858448 63 36.5 C65.16665583 37.75001879 67.3333225 39.00001878 69.5 40.25 C99.83333333 57.75 130.16666667 75.25 160.5 92.75 C161.57266113 93.36883057 162.64532227 93.98766113 163.75048828 94.62524414 C165.91557071 95.87435518 168.08060982 97.12354129 170.24560547 98.37280273 C175.68615706 101.51202309 181.12747216 104.64990563 186.5703125 107.78515625 C197.02206199 113.80747329 207.46299548 119.84669337 217.875 125.9375 C226.55262241 131.01275123 235.26605568 136.02258767 244 141 C253.72115617 146.5400173 263.40894658 152.13374809 273.06689453 157.78344727 C283.59084625 163.93766742 294.15380137 170.02369996 304.71777344 176.10888672 C310.14659942 179.23680148 315.57319281 182.36858448 321 185.5 C323.16665583 186.75001879 325.3333225 188.00001878 327.5 189.25 C392.5 226.75 457.5 264.25 522.5 301.75 C523.57266113 302.36883057 524.64532227 302.98766113 525.75048828 303.62524414 C527.91557071 304.87435518 530.08060982 306.12354129 532.24560547 307.37280273 C537.68615706 310.51202309 543.12747216 313.64990563 548.5703125 316.78515625 C559.02206199 322.80747329 569.46299548 328.84669337 579.875 334.9375 C588.55262241 340.01275123 597.26605568 345.02258767 606 350 C615.71602354 355.53709225 625.39896207 361.12742834 635.05151367 366.7746582 C642.45665692 371.10545734 649.88005169 375.40374158 657.3125 379.6875 C658.39281494 380.31035889 659.47312988 380.93321777 660.58618164 381.57495117 C664.71508754 383.95509227 668.84430118 386.33469538 672.97460938 388.71240234 C675.67137665 390.26521238 678.3670509 391.81990332 681.0625 393.375 C681.86018799 393.83350342 682.65787598 394.29200684 683.47973633 394.7644043 C688.88629956 397.88629956 688.88629956 397.88629956 690 399 C690.10334612 401.17585249 690.13434935 403.35513434 690.13915718 405.53343445 C690.14205026 406.22884044 690.14494335 406.92424643 690.14792411 407.64072533 C690.15650738 410.00505794 690.1578798 412.3693423 690.15936089 414.73368931 C690.16403898 416.43956843 690.16915052 418.1454464 690.17465967 419.85132304 C690.18862658 424.58314653 690.19625334 429.31496295 690.20288389 434.04680165 C690.21111926 439.17804709 690.22500122 444.30927774 690.23811734 449.4405126 C690.26321224 459.63760623 690.28267307 469.83470381 690.3003455 480.03181271 C690.31518086 488.51274856 690.33232276 496.99367716 690.35092163 505.47460556 C690.51818272 581.89916359 690.61757539 658.32383623 690.75161848 785.7216402 C690.76318218 798.49609486 690.77518365 811.27054911 690.78739018 824.04500317 C690.78955132 826.30988717 690.79169815 828.57477118 690.79384466 830.83965519 C690.83926768 878.57347482 690.9275768 926.30708761 691.04102217 974.04079066 C691.12378873 1008.8733855 691.20003722 1043.70593331 691.23047066 1078.53861904 C691.23109949 1079.25477323 691.23172833 1079.97092741 691.23237622 1080.70878324 C691.2460522 1096.42926936 691.25615715 1112.14975574 691.26289443 1127.87024631 C691.2656638 1134.19540831 691.26892428 1140.52057005 691.27234268 1146.84573174 C691.27288495 1147.88412681 691.27288495 1147.88412681 691.27343818 1148.94349956 C691.28532639 1171.25563813 691.33802281 1193.56745111 691.41193237 1215.8794635 C691.4882297 1238.97553373 691.51847444 1262.07123637 691.4950311 1285.16746319 C691.48293949 1298.49030297 691.50731161 1311.81193033 691.58323127 1325.13456543 C691.63034282 1334.02531351 691.63057203 1342.91525152 691.59213774 1351.80603962 C691.57156656 1356.87815008 691.57187609 1361.9479539 691.62916015 1367.01983357 C691.68085126 1371.63215453 691.67298786 1376.24034602 691.61706101 1380.85258253 C691.60746112 1382.51277068 691.6197948 1384.17326272 691.65641018 1385.83307481 C691.76005928 1390.85130819 691.66301753 1395.22959765 690 1400 C686.05226176 1403.79410398 682.00322873 1405.75825555 677 1408 C674.82782744 1409.23032447 672.66584572 1410.47900777 670.51953125 1411.75390625 C668.28500298 1413.02545846 666.04928614 1414.29492382 663.8125 1415.5625 C661.34182403 1416.96765477 658.87211894 1418.37451273 656.40234375 1419.78125 C655.78224426 1420.13417618 655.16214478 1420.48710236 654.52325439 1420.85072327 C648.29361947 1424.39784038 642.08246579 1427.97674171 635.875 1431.5625 C634.81273193 1432.17609375 633.75046387 1432.7896875 632.65600586 1433.421875 C630.51279077 1434.66003976 628.36964283 1435.89832075 626.2265625 1437.13671875 C622.96475993 1439.0203505 619.70138156 1440.90122321 616.4375 1442.78125 C605.98287049 1448.80439739 595.53951558 1454.84522445 585.125 1460.9375 C575.85500223 1466.35921178 566.54168248 1471.70204915 557.21154785 1477.01922607 C548.0871716 1482.22045129 538.99867226 1487.48027878 529.93310547 1492.78344727 C519.40915375 1498.93766742 508.84619863 1505.02369996 498.28222656 1511.10888672 C492.8534006 1514.23680147 487.42679331 1517.36856046 482 1520.5 C475.92283836 1524.00644483 469.84559527 1527.51274701 463.76715088 1531.01696777 C462.01658759 1532.02619104 460.26609589 1533.03553836 458.515625 1534.04492188 C456.33607835 1535.3016766 454.15640168 1536.55820586 451.9765625 1537.81445312 C450.97625 1538.39130859 449.9759375 1538.96816406 448.9453125 1539.5625 C447.97368164 1540.12195312 447.00205078 1540.68140625 446.00097656 1541.2578125 C443.87646335 1542.4911778 441.75930869 1543.73725904 439.64746094 1544.9921875 C438.5649707 1545.63414063 437.48248047 1546.27609375 436.3671875 1546.9375 C435.3860498 1547.52402344 434.40491211 1548.11054687 433.39404297 1548.71484375 C431 1550 431 1550 429 1550 C429.00318737 1549.13421505 429.00637474 1548.26843009 429.0096587 1547.37640923 C429.32980739 1460.18277675 429.63769341 1372.98896979 429.81491089 1264.62440491 C429.81711263 1263.20251937 429.81931439 1261.78063382 429.82151618 1260.35874828 C429.86761774 1230.51210057 429.9083647 1200.66544747 429.94292722 1170.81878418 C429.96029519 1155.82551296 429.97869193 1140.83224314 429.99806147 1125.83897437 C430.00097729 1123.57731564 430.00386374 1121.31565688 430.00674897 1119.05399811 C430.05142917 1084.23318517 430.11815449 1049.41258623 430.24884033 1014.59197998 C430.25164914 1013.84347344 430.25445795 1013.0949669 430.25735187 1012.32377835 C430.30277146 1000.25586006 430.35004351 988.18794903 430.39756146 976.12003886 C430.53442253 941.35490483 430.65755427 906.58996641 430.69009209 871.8245554 C430.69076806 871.10942477 430.69144404 870.39429415 430.69214051 869.6574929 C430.70673501 853.95749408 430.71428681 838.25750007 430.71517304 822.55749475 C430.7156537 816.24005146 430.71714789 809.9226085 430.71899033 803.60516548 C430.71916752 802.91375496 430.71934471 802.22234444 430.71952728 801.50998209 C430.72573775 779.24331192 430.81440448 756.97790948 430.94645485 734.7116582 C431.08282367 711.65166717 431.12722166 688.59320892 431.06486602 665.53272944 C431.03178942 652.2366595 431.07132044 638.94540647 431.2145742 625.65004249 C431.30313638 616.76825546 431.29728985 607.88976384 431.2148076 599.00792679 C431.17048692 593.94463177 431.16708874 588.89053183 431.27891757 583.82807266 C432.48884837 564.34670459 432.48884837 564.34670459 425.50729761 547.00128086 C419.42763605 542.0011563 412.77735036 539.05122398 405.43390201 536.36972541 C399.60261582 534.04372401 394.35886865 530.74072444 389 527.5 C386.83847014 526.24692312 384.67469341 524.99770692 382.5078125 523.75390625 C381.43563477 523.13531738 380.36345703 522.51672852 379.25878906 521.87939453 C375.98300434 519.99019834 372.70644107 518.10235891 369.4296875 516.21484375 C358.97793801 510.19252671 348.53700452 504.15330663 338.125 498.0625 C329.44737759 492.98724877 320.73394432 487.97741233 312 483 C302.27884383 477.4599827 292.59105342 471.86625191 282.93310547 466.21655273 C272.40915375 460.06233258 261.84619863 453.97630004 251.28222656 447.89111328 C245.85340058 444.76319852 240.42680719 441.63141552 235 438.5 C232.83334417 437.24998121 230.6666775 435.99998122 228.5 434.75 C172.16666667 402.25 115.83333333 369.75 59.5 337.25 C58.4267749 336.63084717 57.3535498 336.01169434 56.24780273 335.3737793 C54.08840605 334.1279423 51.92906331 332.88201182 49.76977539 331.63598633 C44.24232403 328.44651047 38.71384879 325.25883115 33.18359375 322.07421875 C32.063479 321.42799561 30.94336426 320.78177246 29.78930664 320.1159668 C27.57962625 318.84462399 25.3666334 317.57901873 23.15014648 316.31958008 C18.31549052 313.56120215 13.57174207 310.76897244 8.9765625 307.625 C8.22060791 307.12460205 7.46465332 306.6242041 6.68579102 306.10864258 C5.32651452 305.19886352 3.99019278 304.25318431 2.68725586 303.2644043 C0.68138021 301.94421477 -0.60672441 301.27064924 -3 301 C-7.03256366 302.40299694 -10.42441746 304.69863991 -14 307 C-16.08876196 308.1972394 -18.18406329 309.38312911 -20.28515625 310.55859375 C-22.54499912 311.85028918 -24.80408292 313.14331331 -27.0625 314.4375 C-28.2921337 315.1412318 -29.52178909 315.84492568 -30.75146484 316.54858398 C-42.11088594 323.05195756 -53.44893155 329.59233639 -64.78222656 336.14111328 C-70.18670645 339.26324605 -75.59347412 342.38141204 -81 345.5 C-83.1666775 346.74998122 -85.33334417 347.99998121 -87.5 349.25 C-152.5 386.75 -152.5 386.75 -155.75048828 388.62524414 C-157.91557071 389.87435518 -160.08060982 391.12354129 -162.24560547 392.37280273 C-167.68615706 395.51202309 -173.12747216 398.64990563 -178.5703125 401.78515625 C-189.02206199 407.80747329 -199.46299548 413.84669337 -209.875 419.9375 C-219.14499777 425.35921178 -228.45831752 430.70204915 -237.78845215 436.01922607 C-246.9128284 441.22045129 -256.00132774 446.48027878 -265.06689453 451.78344727 C-275.59084625 457.93766742 -286.15380137 464.02369996 -296.71777344 470.10888672 C-302.14659942 473.23680148 -307.57319281 476.36858448 -313 479.5 C-315.16665583 480.75001879 -317.3333225 482.00001878 -319.5 483.25 C-320.5725 483.86875 -321.645 484.4875 -322.75 485.125 C-384.50000001 520.75000001 -384.50000001 520.75000001 -387.75512695 522.62792969 C-389.90473634 523.86810761 -392.05431358 525.10834127 -394.20385742 526.34863281 C-399.27309212 529.2735023 -404.34264936 532.19780833 -409.4133606 535.12011719 C-411.80426597 536.49806938 -414.19498672 537.87634172 -416.58569336 539.25463867 C-418.26983963 540.22540982 -419.95425231 541.19571874 -421.63867188 542.16601562 C-422.66154297 542.75576172 -423.68441406 543.34550781 -424.73828125 543.953125 C-425.63587158 544.47036133 -426.53346191 544.98759766 -427.45825195 545.52050781 C-428.29702881 546.00874023 -429.13580566 546.49697266 -430 547 C-430.86473425 547.35716892 -431.72946849 547.71433783 -432.62040681 548.08233005 C-435.38328451 549.87735696 -435.38328451 549.87735696 -435.62099248 553.57219809 C-435.64480047 555.10201849 -435.64058832 556.63241578 -435.61523914 558.16221142 C-435.62100836 559.00817142 -435.62677759 559.85413142 -435.63272163 560.72572657 C-435.64605084 563.58587971 -435.62345018 566.44465054 -435.60127258 569.30473328 C-435.60345117 571.36560119 -435.60782576 573.42646777 -435.61421841 575.48732692 C-435.62544306 581.17010997 -435.60533779 586.85242533 -435.58032811 592.53514874 C-435.55880597 598.65580785 -435.56603768 604.77643896 -435.56983948 610.89712524 C-435.57246569 621.5081414 -435.55690562 632.11898875 -435.52865028 642.72995567 C-435.49908555 653.86112887 -435.4798247 664.99224096 -435.47438622 676.12345314 C-435.47404252 676.81503396 -435.47369882 677.50661479 -435.47334471 678.21915261 C-435.47165309 681.73120809 -435.47014615 685.24326362 -435.46871033 688.75531922 C-435.45820262 713.64429416 -435.42450013 738.53318921 -435.37719727 763.42211914 C-435.3312904 787.60440648 -435.29586486 811.78667197 -435.2746582 835.96899414 C-435.27400057 836.71413346 -435.27334294 837.45927278 -435.27266538 838.22699208 C-435.2660729 845.70984963 -435.25969381 853.19270734 -435.25347109 860.67556519 C-435.24078933 875.91960099 -435.22668307 891.16363535 -435.2117157 906.40766907 C-435.21102925 907.10859617 -435.2103428 907.80952327 -435.20963555 908.53169059 C-435.16361653 955.35449433 -435.08428486 1002.17725115 -435 1049 C-433.92069214 1049.62267761 -433.92069214 1049.62267761 -432.81958008 1050.25793457 C-388.04638672 1076.08862305 -343.27319336 1101.91931152 -298.5 1127.75 C-297.42733887 1128.36883057 -296.35467773 1128.98766113 -295.24951172 1129.62524414 C-293.08442929 1130.87435518 -290.91939018 1132.12354129 -288.75439453 1133.37280273 C-283.31384294 1136.51202309 -277.87252784 1139.64990563 -272.4296875 1142.78515625 C-261.97793801 1148.80747329 -251.53700452 1154.84669337 -241.125 1160.9375 C-232.44737759 1166.01275123 -223.73394432 1171.02258767 -215 1176 C-205.27884383 1181.5400173 -195.59105342 1187.13374809 -185.93310547 1192.78344727 C-175.40915375 1198.93766742 -164.84619863 1205.02369996 -154.28222656 1211.10888672 C-148.85340058 1214.23680148 -143.42680719 1217.36858448 -138 1220.5 C-135.83334417 1221.75001879 -133.6666775 1223.00001878 -131.5 1224.25 C-109.83333333 1236.75 -88.16666667 1249.25 -66.5 1261.75 C-65.4267749 1262.36915283 -64.3535498 1262.98830566 -63.24780273 1263.6262207 C-61.08840605 1264.8720577 -58.92906331 1266.11798818 -56.76977539 1267.36401367 C-51.24232403 1270.55348953 -45.71384879 1273.74116885 -40.18359375 1276.92578125 C-39.063479 1277.57200439 -37.94336426 1278.21822754 -36.78930664 1278.8840332 C-34.57962625 1280.15537601 -32.3666334 1281.42098127 -30.15014648 1282.68041992 C-25.31549052 1285.43879785 -20.57174207 1288.23102756 -15.9765625 1291.375 C-15.22060791 1291.87539795 -14.46465332 1292.3757959 -13.68579102 1292.89135742 C-12.32651452 1293.80113648 -10.99019278 1294.74681569 -9.68725586 1295.7355957 C-7.67786307 1297.05810007 -6.39854543 1297.73378244 -4 1298 C0.02350505 1296.57421576 3.4225595 1294.29834556 7 1292 C8.89225632 1290.93451614 10.79210759 1289.88241109 12.69921875 1288.84375 C25.18320857 1281.88374137 37.57912736 1274.78964947 49.91015625 1267.5625 C56.21570419 1263.8678669 62.54294436 1260.21147319 68.875 1256.5625 C69.95515381 1255.93996338 71.03530762 1255.31742676 72.14819336 1254.67602539 C74.33796334 1253.41423174 76.52782355 1252.15259466 78.71777344 1250.89111328 C84.14659942 1247.76319852 89.57319281 1244.63141552 95 1241.5 C97.16665583 1240.24998121 99.3333225 1238.99998122 101.5 1237.75 C102.5725 1237.13125 103.645 1236.5125 104.75 1235.875 C114.50000001 1230.24999999 114.50000001 1230.24999999 117.75048828 1228.37475586 C119.91557071 1227.12564482 122.08060982 1225.87645871 124.24560547 1224.62719727 C129.68615706 1221.48797691 135.12747216 1218.35009437 140.5703125 1215.21484375 C151.02206199 1209.19252671 161.46299548 1203.15330663 171.875 1197.0625 C181.14266083 1191.64215502 190.45359529 1186.30059615 199.78140259 1180.98480225 C208.06691692 1176.26181284 216.32838101 1171.49971658 224.5625 1166.6875 C225.53396973 1166.12015137 226.50543945 1165.55280273 227.50634766 1164.96826172 C231.288392 1162.75827582 235.06949218 1160.54674718 238.84619141 1158.32763672 C241.52039129 1156.75652679 244.19746578 1155.19041837 246.875 1153.625 C247.67236572 1153.15408936 248.46973145 1152.68317871 249.29125977 1152.19799805 C254.77328152 1149 254.77328152 1149 257 1149 C257.29756067 1187.20919701 257.5266272 1225.41821948 257.66384928 1263.62834072 C257.68010845 1268.13943607 257.69693465 1272.65052915 257.71411133 1277.16162109 C257.71752136 1278.05969766 257.7209314 1278.95777422 257.72444477 1279.88306522 C257.78101131 1294.42446681 257.88350906 1308.96520023 258.00298635 1323.50620544 C258.12456069 1338.42688611 258.19676458 1353.34721689 258.22315043 1368.26837254 C258.24098837 1377.47587028 258.29731716 1386.6814796 258.40291407 1395.88839597 C258.47163944 1402.20217238 258.49240114 1408.51497285 258.47551791 1414.82909614 C258.46718964 1418.47281149 258.47993238 1422.11322888 258.54967117 1425.75635719 C258.93680018 1447.02369551 258.93680018 1447.02369551 255.75773597 1451.9090023 C252.35137132 1455.23357592 248.49612516 1456.5384563 244 1458 C241.81525466 1459.2078575 239.65118127 1460.45463717 237.51953125 1461.75390625 C235.28500298 1463.02545846 233.04928614 1464.29492382 230.8125 1465.5625 C228.34182403 1466.96765477 225.87211894 1468.37451273 223.40234375 1469.78125 C222.78224426 1470.13417618 222.16214478 1470.48710236 221.52325439 1470.85072327 C215.29361915 1474.39784056 209.0824978 1477.97679664 202.875 1481.5625 C201.81128174 1482.17681885 200.74756348 1482.7911377 199.65161133 1483.42407227 C197.50690413 1484.66292223 195.3622912 1485.90193541 193.21777344 1487.14111328 C187.81329351 1490.26324607 182.40649893 1493.38136526 177 1496.5 C175.92878906 1497.11810547 174.85757813 1497.73621094 173.75390625 1498.37304688 C168.31353925 1501.51222374 162.87237045 1504.64999629 157.4296875 1507.78515625 C146.97793801 1513.80747329 136.53700452 1519.84669337 126.125 1525.9375 C116.85500223 1531.35921178 107.54168248 1536.70204915 98.21154785 1542.01922607 C89.0871716 1547.22045129 79.99867226 1552.48027878 70.93310547 1557.78344727 C60.42954565 1563.92574259 49.88720926 1570.00025862 39.34375 1576.07373047 C34.73222575 1578.73034016 30.1214786 1581.38829557 25.51123047 1584.04711914 C23.33335118 1585.30312898 21.15530494 1586.55884939 18.97705078 1587.81420898 C17.47634033 1588.67961304 17.47634033 1588.67961304 15.9453125 1589.5625 C14.48206543 1590.39974609 14.48206543 1590.39974609 12.98925781 1591.25390625 C10.89126259 1592.47939317 8.81389595 1593.74055699 6.75292969 1595.02734375 C5.69750977 1595.67832031 4.64208984 1596.32929687 3.5546875 1597 C2.60835449 1597.598125 1.66202148 1598.19625 0.68701172 1598.8125 C-2.47805962 1600.21127403 -3.76474012 1600.09371274 -7 1599 C-9.46102725 1597.68628439 -11.81471088 1596.33238679 -14.1875 1594.875 C-15.71274102 1593.95830195 -17.23883949 1593.0430296 -18.765625 1592.12890625 C-20.01762695 1591.37697998 -20.01762695 1591.37697998 -21.29492188 1590.60986328 C-26.31161026 1587.62429981 -31.37714446 1584.72321379 -36.4375 1581.8125 C-38.68622759 1580.51697859 -40.93492511 1579.22140498 -43.18359375 1577.92578125 C-44.31265137 1577.27561035 -45.44170898 1576.62543945 -46.60498047 1575.95556641 C-52.0716998 1572.80667946 -57.53574887 1569.65316736 -63 1566.5 C-65.16665311 1565.2499765 -67.33331979 1563.99997653 -69.5 1562.75 C-91.16666667 1550.25 -112.83333333 1537.75 -134.5 1525.25 C-135.57266113 1524.63116943 -136.64532227 1524.01233887 -137.75048828 1523.37475586 C-139.91557071 1522.12564482 -142.08060982 1520.87645871 -144.24560547 1519.62719727 C-149.68615706 1516.48797691 -155.12747216 1513.35009437 -160.5703125 1510.21484375 C-171.02206199 1504.19252671 -181.46299548 1498.15330663 -191.875 1492.0625 C-200.55262241 1486.98724877 -209.26605568 1481.97741233 -218 1477 C-227.72115617 1471.4599827 -237.40894658 1465.86625191 -247.06689453 1460.21655273 C-257.59084625 1454.06233258 -268.15380137 1447.97630004 -278.71777344 1441.89111328 C-284.14659942 1438.76319852 -289.57319281 1435.63141552 -295 1432.5 C-297.16665583 1431.24998121 -299.3333225 1429.99998122 -301.5 1428.75 C-375.16666667 1386.25 -448.83333333 1343.75 -522.5 1301.25 C-523.57266113 1300.63116943 -524.64532227 1300.01233887 -525.75048828 1299.37475586 C-527.91557071 1298.12564482 -530.08060982 1296.87645871 -532.24560547 1295.62719727 C-537.68615706 1292.48797691 -543.12747216 1289.35009437 -548.5703125 1286.21484375 C-559.02206199 1280.19252671 -569.46299548 1274.15330663 -579.875 1268.0625 C-588.55262241 1262.98724877 -597.26605568 1257.97741233 -606 1253 C-615.72115617 1247.4599827 -625.40894658 1241.86625191 -635.06689453 1236.21655273 C-642.32211788 1231.97382691 -649.59358549 1227.76011101 -656.875 1223.5625 C-657.93726807 1222.94995361 -658.99953613 1222.33740723 -660.09399414 1221.70629883 C-665.23605965 1218.74233209 -670.37972883 1215.78117532 -675.52557373 1212.82377625 C-677.95334268 1211.42818529 -680.38043248 1210.03141585 -682.80743408 1208.63449097 C-684.53418688 1207.64128534 -686.26195832 1206.64985135 -687.98974609 1205.65844727 C-689.54363037 1204.76403931 -689.54363037 1204.76403931 -691.12890625 1203.8515625 C-692.04744385 1203.32385254 -692.96598145 1202.79614258 -693.91235352 1202.25244141 C-696 1201 -696 1201 -697 1200 C-697.10595383 1198.25407679 -697.14114677 1196.50383997 -697.14951319 1194.75472474 C-697.15739743 1193.6076412 -697.16528168 1192.46055765 -697.17340484 1191.278714 C-697.17706647 1189.99997633 -697.1807281 1188.72123867 -697.18450069 1187.40375137 C-697.19190654 1186.04046984 -697.19974162 1184.67719058 -697.20797029 1183.31391376 C-697.2294622 1179.53330384 -697.24459694 1175.75269036 -697.25869614 1171.97204659 C-697.27500121 1167.87183972 -697.29686575 1163.77166178 -697.31792217 1159.67147708 C-697.35875683 1151.52354067 -697.39377944 1143.37558824 -697.42685953 1135.22761704 C-697.45447872 1128.45078516 -697.48434967 1121.67396629 -697.51556206 1114.89715004 C-697.85851819 1040.22121195 -698.06034247 965.54480116 -698.21455566 890.8682561 C-698.23699099 880.05035284 -698.2602985 869.23245148 -698.28393555 858.41455078 C-698.28652936 857.21916454 -698.28912317 856.02377829 -698.29179559 854.79216823 C-698.37640535 816.039379 -698.53504711 777.28733297 -698.73307193 738.53497072 C-698.93620081 698.71141181 -699.0674832 658.88826014 -699.10722179 619.06418645 C-699.11286092 613.44020779 -699.11930743 607.81623032 -699.12623787 602.19225311 C-699.12757468 601.08537258 -699.12891148 599.97849204 -699.1302888 598.83806967 C-699.15389775 581.01616943 -699.25305901 563.19545139 -699.38026595 545.37402293 C-699.50647784 527.46041838 -699.55245646 509.54802775 -699.5165435 491.63400194 C-699.49762513 480.98822934 -699.54007554 470.34682007 -699.67040915 459.70180641 C-699.75144036 452.58930945 -699.75243083 445.47969399 -699.68862407 438.36702953 C-699.65453568 434.31285339 -699.65495444 430.26693231 -699.75310879 426.21361735 C-700.2867897 402.83426266 -700.2867897 402.83426266 -694.82612105 396.46402305 C-689.58795297 392.18390715 -683.86118257 389.44693089 -677.57949281 387.02909145 C-674.16243316 385.6658518 -671.2025815 383.9108999 -668.078125 381.9765625 C-666.13611511 380.85816133 -664.19341594 379.74095612 -662.25 378.625 C-660.04685608 377.35680371 -657.84373165 376.08857355 -655.640625 374.8203125 C-654.54298828 374.18899414 -653.44535156 373.55767578 -652.31445312 372.90722656 C-646.87349435 369.77635076 -641.43694752 366.63783458 -636 363.5 C-633.83335502 362.24996242 -631.66668834 360.99996244 -629.5 359.75 C-628.4275 359.13125 -627.355 358.5125 -626.25 357.875 C-538.5 307.25 -538.5 307.25 -535.24951172 305.37475586 C-533.08442929 304.12564482 -530.91939018 302.87645871 -528.75439453 301.62719727 C-523.31384294 298.48797691 -517.87252784 295.35009437 -512.4296875 292.21484375 C-501.97793801 286.19252671 -491.53700452 280.15330663 -481.125 274.0625 C-471.85500223 268.64078822 -462.54168248 263.29795085 -453.21154785 257.98077393 C-444.0871716 252.77954871 -434.99867226 247.51972122 -425.93310547 242.21655273 C-415.40915375 236.06233258 -404.84619863 229.97630004 -394.28222656 223.89111328 C-388.85340058 220.76319852 -383.42680719 217.63141552 -378 214.5 C-375.83334417 213.24998121 -373.6666775 211.99998122 -371.5 210.75 C-370.4275 210.13125 -369.355 209.5125 -368.25 208.875 C-150.50000001 83.25 -150.50000001 83.25 -147.24951172 81.37475586 C-145.08442929 80.12564482 -142.91939018 78.87645871 -140.75439453 77.62719727 C-135.31384294 74.48797691 -129.87252784 71.35009437 -124.4296875 68.21484375 C-113.97793801 62.19252671 -103.53700452 56.15330663 -93.125 50.0625 C-84.44737548 44.98724753 -75.73386463 39.97755447 -67 35 C-58.22602338 29.99908214 -49.47138467 24.96732319 -40.75 19.875 C-39.78924561 19.31611084 -38.82849121 18.75722168 -37.83862305 18.18139648 C-32.6486051 15.1565394 -27.48638221 12.09175137 -22.34765625 8.98046875 C-21.25420898 8.3251416 -20.16076172 7.66981445 -19.03417969 6.99462891 C-16.93251399 5.73420284 -14.8377136 4.4622368 -12.75097656 3.17724609 C-11.33703613 2.33347412 -11.33703613 2.33347412 -9.89453125 1.47265625 C-9.06800049 0.97000244 -8.24146973 0.46734863 -7.38989258 -0.05053711 C-4.39596095 -1.23997424 -3.03835032 -0.99722807 0 0 Z " fill="#FE506A" transform="translate(697,1)"/>
<path d="M0 0 C1.91780091 0.95190608 3.83480168 1.90542428 5.75146484 2.85961914 C6.81908051 3.39043594 7.88669617 3.92125275 8.98666382 4.46815491 C12.62653202 6.3185008 16.13262899 8.32603747 19.625 10.4375 C21.08656818 11.3084194 22.54885737 12.17812951 24.01171875 13.046875 C25.19773682 13.75166992 25.19773682 13.75166992 26.40771484 14.47070312 C31.39604235 17.41352508 36.41854408 20.29733531 41.4375 23.1875 C42.54367676 23.82486084 43.64985352 24.46222168 44.78955078 25.11889648 C47.06123665 26.42762416 49.33304755 27.73613484 51.60498047 29.04443359 C57.0716998 32.19332054 62.53574887 35.34683264 68 38.5 C70.16665311 39.7500235 72.33331979 41.00002347 74.5 42.25 C96.16666667 54.75 117.83333333 67.25 139.5 79.75 C140.57266113 80.36883057 141.64532227 80.98766113 142.75048828 81.62524414 C144.91557071 82.87435518 147.08060982 84.12354129 149.24560547 85.37280273 C154.68615706 88.51202309 160.12747216 91.64990563 165.5703125 94.78515625 C176.02206199 100.80747329 186.46299548 106.84669337 196.875 112.9375 C206.59696385 118.62355162 216.36304867 124.22968175 226.15576172 129.79272461 C228.33710331 131.03426629 230.49135712 132.32442005 232.61830711 133.65699673 C235.95483907 135.60898783 239.21285554 136.72071434 242.91012001 137.82862186 C249.96938115 140.32106414 256.90998307 143.4141739 261 150 C266.04209028 163.20780551 263.87909586 179.85584779 263.48898268 193.67652786 C263.34371546 199.7707864 263.33871125 205.86534839 263.31742859 211.96107483 C263.26263736 222.51575812 263.12342712 233.06690633 262.92802048 243.61970329 C262.64674669 258.89338207 262.52615571 274.16540914 262.44803627 289.44132561 C262.4114032 296.56754725 262.36707219 303.69372116 262.32082558 310.81988621 C262.31620728 311.53314649 262.31158898 312.24640677 262.30683074 312.981281 C262.19527789 329.93985983 262.0090826 346.89748331 261.80957031 363.85522461 C261.80087615 364.59672416 261.79218198 365.33822371 261.78322436 366.10219295 C261.60667502 381.14605681 261.42194977 396.18981813 261.23433867 411.23354765 C261.13139367 419.49381629 261.02995041 427.75410268 260.9296875 436.0144043 C260.92066528 436.75534494 260.91164306 437.49628558 260.90234744 438.25967896 C260.69665844 455.18731574 260.5139371 472.11475351 260.40558815 489.04332066 C260.40102236 489.75546263 260.39645657 490.4676046 260.39175243 491.20132663 C260.34671428 498.31239897 260.30586074 505.42348315 260.27115458 512.53461347 C260.19584688 527.7909073 260.05032162 543.04182896 259.76039338 558.29564821 C259.55019993 569.41541386 259.43224322 580.53366828 259.40345071 591.65555971 C259.38456795 597.6781652 259.32293809 603.6924112 259.14628029 609.71262741 C257.17312703 632.63008146 257.17312703 632.63008146 264.47168398 653.31863332 C270.13373121 658.71879471 277.20571978 661.38715883 284.5580399 663.75293553 C290.46590145 665.89342642 295.6564894 669.23771578 301 672.5 C303.16360002 673.75530052 305.32992233 675.00593113 307.5 676.25 C337.83333333 693.75 368.16666667 711.25 398.5 728.75 C399.57266113 729.36883057 400.64532227 729.98766113 401.75048828 730.62524414 C403.91557071 731.87435518 406.08060982 733.12354129 408.24560547 734.37280273 C413.68615706 737.51202309 419.12747216 740.64990563 424.5703125 743.78515625 C435.02206199 749.80747329 445.46299548 755.84669337 455.875 761.9375 C464.55262241 767.01275123 473.26605568 772.02258767 482 777 C491.72115617 782.5400173 501.40894658 788.13374809 511.06689453 793.78344727 C521.59084625 799.93766742 532.15380137 806.02369996 542.71777344 812.10888672 C548.14659942 815.23680148 553.57319281 818.36858448 559 821.5 C561.16665583 822.75001879 563.3333225 824.00001878 565.5 825.25 C587.16666667 837.75 608.83333333 850.25 630.5 862.75 C631.5732251 863.36915283 632.6464502 863.98830566 633.75219727 864.6262207 C635.91159395 865.8720577 638.07093669 867.11798818 640.23022461 868.36401367 C645.75767597 871.55348953 651.28615121 874.74116885 656.81640625 877.92578125 C657.936521 878.57200439 659.05663574 879.21822754 660.21069336 879.8840332 C662.42037375 881.15537601 664.6333666 882.42098127 666.84985352 883.68041992 C671.68450948 886.43879785 676.42825793 889.23102756 681.0234375 892.375 C681.77939209 892.87539795 682.53534668 893.3757959 683.31420898 893.89135742 C684.67348548 894.80113648 686.00980722 895.74681569 687.31274414 896.7355957 C689.32213693 898.05810007 690.60145457 898.73378244 693 899 C697.02350505 897.57421576 700.4225595 895.29834556 704 893 C705.89225632 891.93451614 707.79210759 890.88241109 709.69921875 889.84375 C722.18320857 882.88374137 734.57912736 875.78964947 746.91015625 868.5625 C753.21570419 864.8678669 759.54294436 861.21147319 765.875 857.5625 C766.95515381 856.93996338 768.03530762 856.31742676 769.14819336 855.67602539 C771.33796334 854.41423174 773.52782355 853.15259466 775.71777344 851.89111328 C781.14659942 848.76319852 786.57319281 845.63141552 792 842.5 C794.16665583 841.24998121 796.3333225 839.99998122 798.5 838.75 C800.10875 837.821875 800.10875 837.821875 801.75 836.875 C811.5 831.25 811.5 831.25 814.75048828 829.37475586 C816.91557071 828.12564482 819.08060982 826.87645871 821.24560547 825.62719727 C826.68615706 822.48797691 832.12747216 819.35009437 837.5703125 816.21484375 C848.02206199 810.19252671 858.46299548 804.15330663 868.875 798.0625 C878.14266083 792.64215502 887.45359529 787.30059615 896.78140259 781.98480225 C905.06691692 777.26181284 913.32838101 772.49971658 921.5625 767.6875 C922.53396973 767.12015137 923.50543945 766.55280273 924.50634766 765.96826172 C928.288392 763.75827582 932.06949218 761.54674718 935.84619141 759.32763672 C938.52039129 757.75652679 941.19746578 756.19041837 943.875 754.625 C944.67236572 754.15408936 945.46973145 753.68317871 946.29125977 753.19799805 C951.77328152 750 951.77328152 750 954 750 C954.29756067 788.20919701 954.5266272 826.41821948 954.66384928 864.62834072 C954.68010845 869.13943607 954.69693465 873.65052915 954.71411133 878.16162109 C954.71752136 879.05969766 954.7209314 879.95777422 954.72444477 880.88306522 C954.78101131 895.42446681 954.88350906 909.96520023 955.00298635 924.50620544 C955.12456069 939.42688611 955.19676458 954.34721689 955.22315043 969.26837254 C955.24098837 978.47587028 955.29731716 987.6814796 955.40291407 996.88839597 C955.47163944 1003.20217238 955.49240114 1009.51497285 955.47551791 1015.82909614 C955.46718964 1019.47281149 955.47993238 1023.11322888 955.54967117 1026.75635719 C955.93680018 1048.02369551 955.93680018 1048.02369551 952.75773597 1052.9090023 C949.35137132 1056.23357592 945.49612516 1057.5384563 941 1059 C938.81525466 1060.2078575 936.65118127 1061.45463717 934.51953125 1062.75390625 C932.28500298 1064.02545846 930.04928614 1065.29492382 927.8125 1066.5625 C925.34182403 1067.96765477 922.87211894 1069.37451273 920.40234375 1070.78125 C919.78224426 1071.13417618 919.16214478 1071.48710236 918.52325439 1071.85072327 C912.29361915 1075.39784056 906.0824978 1078.97679664 899.875 1082.5625 C898.81128174 1083.17681885 897.74756348 1083.7911377 896.65161133 1084.42407227 C894.50690413 1085.66292223 892.3622912 1086.90193541 890.21777344 1088.14111328 C884.81329351 1091.26324607 879.40649893 1094.38136526 874 1097.5 C872.92878906 1098.11810547 871.85757813 1098.73621094 870.75390625 1099.37304688 C865.31353925 1102.51222374 859.87237045 1105.64999629 854.4296875 1108.78515625 C843.97793801 1114.80747329 833.53700452 1120.84669337 823.125 1126.9375 C813.85500223 1132.35921178 804.54168248 1137.70204915 795.21154785 1143.01922607 C786.0871716 1148.22045129 776.99867226 1153.48027878 767.93310547 1158.78344727 C757.42954565 1164.92574259 746.88720926 1171.00025862 736.34375 1177.07373047 C731.73222575 1179.73034016 727.1214786 1182.38829557 722.51123047 1185.04711914 C720.33335118 1186.30312898 718.15530494 1187.55884939 715.97705078 1188.81420898 C714.47634033 1189.67961304 714.47634033 1189.67961304 712.9453125 1190.5625 C711.48206543 1191.39974609 711.48206543 1191.39974609 709.98925781 1192.25390625 C707.89126259 1193.47939317 705.81389595 1194.74055699 703.75292969 1196.02734375 C702.69750977 1196.67832031 701.64208984 1197.32929687 700.5546875 1198 C699.60835449 1198.598125 698.66202148 1199.19625 697.68701172 1199.8125 C694.52194038 1201.21127403 693.23525988 1201.09371274 690 1200 C687.53897275 1198.68628439 685.18528912 1197.33238679 682.8125 1195.875 C681.28725898 1194.95830195 679.76116051 1194.0430296 678.234375 1193.12890625 C676.98237305 1192.37697998 676.98237305 1192.37697998 675.70507812 1191.60986328 C670.68838974 1188.62429981 665.62285554 1185.72321379 660.5625 1182.8125 C658.31377241 1181.51697859 656.06507489 1180.22140498 653.81640625 1178.92578125 C652.68734863 1178.27561035 651.55829102 1177.62543945 650.39501953 1176.95556641 C644.9283002 1173.80667946 639.46425113 1170.65316736 634 1167.5 C631.83334689 1166.2499765 629.66668021 1164.99997653 627.5 1163.75 C605.83333333 1151.25 584.16666667 1138.75 562.5 1126.25 C561.42733887 1125.63116943 560.35467773 1125.01233887 559.24951172 1124.37475586 C557.08442929 1123.12564482 554.91939018 1121.87645871 552.75439453 1120.62719727 C547.31384294 1117.48797691 541.87252784 1114.35009437 536.4296875 1111.21484375 C525.97793801 1105.19252671 515.53700452 1099.15330663 505.125 1093.0625 C496.44737759 1087.98724877 487.73394432 1082.97741233 479 1078 C469.27884383 1072.4599827 459.59105342 1066.86625191 449.93310547 1061.21655273 C439.40915375 1055.06233258 428.84619863 1048.97630004 418.28222656 1042.89111328 C412.85340058 1039.76319852 407.42680719 1036.63141552 402 1033.5 C399.83334417 1032.24998121 397.6666775 1030.99998122 395.5 1029.75 C321.83333333 987.25 248.16666667 944.75 174.5 902.25 C173.42733887 901.63116943 172.35467773 901.01233887 171.24951172 900.37475586 C169.08442929 899.12564482 166.91939018 897.87645871 164.75439453 896.62719727 C159.31384294 893.48797691 153.87252784 890.35009437 148.4296875 887.21484375 C137.97793801 881.19252671 127.53700452 875.15330663 117.125 869.0625 C108.44737759 863.98724877 99.73394432 858.97741233 91 854 C81.27884383 848.4599827 71.59105342 842.86625191 61.93310547 837.21655273 C54.67788212 832.97382691 47.40641451 828.76011101 40.125 824.5625 C39.06273193 823.94995361 38.00046387 823.33740723 36.90600586 822.70629883 C31.76394035 819.74233209 26.62027117 816.78117532 21.47442627 813.82377625 C19.04665732 812.42818529 16.61956752 811.03141585 14.19256592 809.63449097 C12.46581312 808.64128534 10.73804168 807.64985135 9.01025391 806.65844727 C7.45636963 805.76403931 7.45636963 805.76403931 5.87109375 804.8515625 C4.95255615 804.32385254 4.03401855 803.79614258 3.08764648 803.25244141 C1 802 1 802 0 801 C-0.09782053 799.24883002 -0.12447224 797.49366602 -0.1241985 795.73976606 C-0.12756944 794.01414435 -0.12756944 794.01414435 -0.13100848 792.2536616 C-0.12838146 790.97120792 -0.12575445 789.68875423 -0.12304783 788.36743832 C-0.12378658 787.00022472 -0.12496422 785.6330113 -0.12654433 784.26579842 C-0.12963375 780.47433242 -0.12642145 776.68289293 -0.12226619 772.89142889 C-0.11884927 768.77968629 -0.12119947 764.66794655 -0.12284368 760.55620342 C-0.1249235 753.33849573 -0.12326333 746.12079626 -0.11920547 738.90308952 C-0.11318822 728.17050232 -0.11286801 717.43792033 -0.11374746 706.70533174 C-0.11506364 688.6543315 -0.11171135 670.60333492 -0.10573006 652.55233574 C-0.09982001 634.67066874 -0.09596552 616.78900325 -0.09487724 598.90733528 C-0.0948085 597.79694025 -0.09473976 596.68654522 -0.09466894 595.54250185 C-0.09433062 589.90373484 -0.09402923 584.26496782 -0.09374207 578.6262008 C-0.09163972 538.65094598 -0.08489699 498.67569315 -0.07543945 458.70043945 C-0.06626019 419.85668956 -0.05917405 381.01294021 -0.05493164 342.16918945 C-0.05480011 340.97258219 -0.05466859 339.77597493 -0.05453308 338.54310685 C-0.0532146 326.52666313 -0.05193878 314.51021942 -0.05069422 302.49377569 C-0.04815777 278.01327088 -0.04533652 253.53276611 -0.04234314 229.05226135 C-0.04220585 227.92660202 -0.04206856 226.80094268 -0.04192711 225.64117245 C-0.03272108 150.42744747 -0.01687526 75.2137236 0 0 Z " fill="#DB244C" transform="translate(0,400)"/>
<path d="M0 0 C0.20458064 87.54727188 0.40382416 175.09459359 0.55046082 285.95800781 C0.55227367 287.38229349 0.55408654 288.80657917 0.55589943 290.23086485 C0.59389353 320.12634608 0.62921092 350.02182998 0.66143582 379.91731798 C0.67762607 394.9345908 0.69433073 409.95186302 0.71152174 424.96913473 C0.71411197 427.23444747 0.71668751 429.49976022 0.71926244 431.76507297 C0.75904688 466.65179593 0.80987009 501.53845995 0.89263916 536.42510986 C0.89441884 537.17532525 0.89619853 537.92554064 0.89803214 538.69848983 C0.92679333 550.79434757 0.95648011 562.89020303 0.98628973 574.98605821 C1.07212621 609.82167742 1.15112948 644.65725133 1.18481731 679.4929657 C1.18586125 680.56729766 1.18586125 680.56729766 1.18692627 681.66333329 C1.20208047 697.38534187 1.21371391 713.10735102 1.22201278 728.82936466 C1.22541391 735.15517442 1.22932196 741.48098385 1.23340416 747.80679321 C1.23383871 748.49912963 1.23427327 749.19146606 1.23472099 749.90478237 C1.2489795 772.21974565 1.30451893 794.53437241 1.38166871 816.84919984 C1.46133793 839.94884601 1.49519974 863.04813242 1.47551791 886.14794999 C1.46560628 899.47301362 1.49220129 912.79685805 1.57036806 926.12170223 C1.61898301 935.01395569 1.6207241 943.90540744 1.58381358 952.79771545 C1.56411438 957.87071368 1.56530389 962.94140092 1.62348137 968.01415479 C1.67598733 972.62727833 1.66893578 977.23628315 1.61381968 981.84934121 C1.60451341 983.50982984 1.61714369 985.17061848 1.65405818 986.83072282 C1.75860818 991.84963349 1.66244 996.2286527 0 1001 C-3.94763269 1004.79447745 -7.996528 1006.75835457 -13 1009 C-15.17217716 1010.23031634 -17.33415971 1011.47899864 -19.48046875 1012.75390625 C-21.71499702 1014.02545846 -23.95071386 1015.29492382 -26.1875 1016.5625 C-28.65817597 1017.96765477 -31.12788106 1019.37451273 -33.59765625 1020.78125 C-34.21775574 1021.13417618 -34.83785522 1021.48710236 -35.47674561 1021.85072327 C-41.70638053 1025.39784038 -47.91753421 1028.97674171 -54.125 1032.5625 C-55.18726807 1033.17609375 -56.24953613 1033.7896875 -57.34399414 1034.421875 C-59.48720923 1035.66003976 -61.63035717 1036.89832075 -63.7734375 1038.13671875 C-67.03524007 1040.0203505 -70.29861844 1041.90122321 -73.5625 1043.78125 C-84.01712951 1049.80439739 -94.46048442 1055.84522445 -104.875 1061.9375 C-114.14499777 1067.35921178 -123.45831752 1072.70204915 -132.78845215 1078.01922607 C-141.9128284 1083.22045129 -151.00132774 1088.48027878 -160.06689453 1093.78344727 C-170.59084625 1099.93766742 -181.15380137 1106.02369996 -191.71777344 1112.10888672 C-197.1465994 1115.23680147 -202.57320669 1118.36856046 -208 1121.5 C-214.07716164 1125.00644483 -220.15440473 1128.51274701 -226.23284912 1132.01696777 C-227.98341241 1133.02619104 -229.73390411 1134.03553836 -231.484375 1135.04492188 C-233.66392165 1136.3016766 -235.84359832 1137.55820586 -238.0234375 1138.81445312 C-239.52390625 1139.67973633 -239.52390625 1139.67973633 -241.0546875 1140.5625 C-242.02631836 1141.12195312 -242.99794922 1141.68140625 -243.99902344 1142.2578125 C-246.12353665 1143.4911778 -248.24069131 1144.73725904 -250.35253906 1145.9921875 C-251.4350293 1146.63414063 -252.51751953 1147.27609375 -253.6328125 1147.9375 C-254.6139502 1148.52402344 -255.59508789 1149.11054687 -256.60595703 1149.71484375 C-259 1151 -259 1151 -261 1151 C-261.20458068 1063.54029472 -261.4038242 976.08053955 -261.55046082 865.32800293 C-261.55227367 863.90514123 -261.55408654 862.48227952 -261.55589943 861.05941782 C-261.59389353 831.19382385 -261.62921092 801.32822719 -261.66143582 771.46262644 C-261.67762607 756.46036614 -261.69433073 741.45810646 -261.71152174 726.45584728 C-261.71411197 724.19279918 -261.71668751 721.92975107 -261.71926244 719.66670295 C-261.75904686 684.8148673 -261.80987006 649.96309066 -261.89263916 615.11132812 C-261.89441884 614.3618633 -261.89619853 613.61239847 -261.89803214 612.84022258 C-261.92679332 600.7564667 -261.95648011 588.6727131 -261.98628973 576.58895977 C-262.07212624 541.7881821 -262.1511295 506.98744977 -262.18481731 472.18657684 C-262.18551327 471.47107147 -262.18620923 470.7555661 -262.18692627 470.01837875 C-262.20208047 454.31208366 -262.21371391 438.60578801 -262.22201278 422.89948786 C-262.22541391 416.57999992 -262.22932196 410.26051231 -262.23340416 403.94102478 C-262.23383871 403.24938027 -262.23427327 402.55773576 -262.23472099 401.84513233 C-262.24897948 379.55249151 -262.30451887 357.26018756 -262.38166871 334.96768274 C-262.46133803 311.89113224 -262.49519971 288.81494187 -262.47551791 265.7382198 C-262.4656063 252.4264864 -262.49220112 239.11597342 -262.57036806 225.80445969 C-262.61898316 216.92109186 -262.620724 208.03852654 -262.58381358 199.1551041 C-262.56411445 194.08718022 -262.56530356 189.02156965 -262.62348137 183.95389038 C-262.67598775 179.34537061 -262.66893543 174.74097364 -262.61381968 170.13251939 C-262.60451349 168.47369778 -262.61714339 166.81457585 -262.65405818 165.15613893 C-262.75719783 160.20994137 -262.64918449 155.7295894 -261 151 C-257.05221364 147.20672698 -253.00250841 145.24201674 -248 143 C-245.82783926 141.76965466 -243.66585932 140.52096932 -241.51953125 139.24609375 C-239.28500298 137.97454154 -237.04928614 136.70507618 -234.8125 135.4375 C-232.34182403 134.03234523 -229.87211894 132.62548727 -227.40234375 131.21875 C-226.78224426 130.86582382 -226.16214478 130.51289764 -225.52325439 130.14927673 C-219.29361915 126.60215944 -213.0824978 123.02320336 -206.875 119.4375 C-205.81128174 118.82318115 -204.74756348 118.2088623 -203.65161133 117.57592773 C-201.50690413 116.33707777 -199.3622912 115.09806459 -197.21777344 113.85888672 C-191.81329355 110.73675395 -186.40652588 107.61858796 -181 104.5 C-178.8333225 103.25001878 -176.66665583 102.00001879 -174.5 100.75 C-109.5 63.25 -109.5 63.25 -106.24951172 61.37475586 C-104.08442929 60.12564482 -101.91939018 58.87645871 -99.75439453 57.62719727 C-94.31384294 54.48797691 -88.87252784 51.35009437 -83.4296875 48.21484375 C-72.0015889 41.62995259 -60.59070004 35.01765157 -49.20776367 28.35498047 C-43.70924303 25.14316633 -38.19481879 21.96148113 -32.66015625 18.8125 C-32.0375592 18.45804306 -31.41496216 18.10358612 -30.77349854 17.73838806 C-27.75185057 16.01884246 -24.72833356 14.30272511 -21.70166016 12.59204102 C-15.35861097 8.98919278 -9.14867118 5.25454347 -3.0402832 1.26538086 C-1 0 -1 0 0 0 Z " fill="#9E0D38" transform="translate(1387,400)"/>
<path d="M0 0 C2.78153626 0.84015021 4.94468028 1.93378597 7.43823242 3.42236328 C8.37070801 3.97335693 9.30318359 4.52435059 10.26391602 5.09204102 C11.26632324 5.69346924 12.26873047 6.29489746 13.30151367 6.91455078 C15.47427348 8.20041237 17.64746525 9.4855443 19.82104492 10.77001953 C20.94333496 11.43565918 22.065625 12.10129883 23.22192383 12.78710938 C28.62095515 15.97430204 34.05454207 19.10079754 39.48901367 22.22705078 C41.67395735 23.48608234 43.85885292 24.74519739 46.04370117 26.00439453 C47.67130371 26.9419458 47.67130371 26.9419458 49.33178711 27.8984375 C54.7606131 31.02635226 60.18720648 34.15813526 65.61401367 37.28955078 C67.7806695 38.53956957 69.94733617 39.78956957 72.11401367 41.03955078 C93.78068034 53.53955078 115.44734701 66.03955078 137.11401367 78.53955078 C138.1866748 79.15838135 139.25933594 79.77721191 140.36450195 80.41479492 C142.52958438 81.66390596 144.69462349 82.91309207 146.85961914 84.16235352 C152.30017073 87.30157388 157.74148583 90.43945641 163.18432617 93.57470703 C173.63607567 99.59702407 184.07700915 105.63624415 194.48901367 111.72705078 C203.16663991 116.80230425 211.88021068 121.81188598 220.61401367 126.78955078 C229.86589365 132.06343782 239.0988503 137.36762402 248.30151367 142.72705078 C249.32954102 143.32453125 250.35756836 143.92201172 251.41674805 144.53759766 C252.35196289 145.08351563 253.28717773 145.62943359 254.25073242 146.19189453 C255.07275146 146.67134521 255.89477051 147.1507959 256.74169922 147.64477539 C258.61401367 148.78955078 258.61401367 148.78955078 259.61401367 149.78955078 C259.72273221 151.3872473 259.76163758 152.98973244 259.77337456 154.59108067 C259.78338269 155.63664019 259.79339082 156.68219972 259.80370224 157.75944287 C259.80965695 158.9222485 259.81561167 160.08505414 259.82174683 161.28309631 C259.83177361 162.50745547 259.84180039 163.73181463 259.85213101 164.99327558 C259.87878692 168.40744036 259.90079475 171.82157655 259.92064691 175.23578393 C259.93841577 178.16048753 259.95984112 181.08516009 259.98118661 184.00983942 C260.18248936 211.73736772 260.28604046 239.46566252 260.36970329 267.19376469 C260.38079186 270.80471421 260.39208409 274.41566303 260.40356445 278.02661133 C260.40640899 278.92412239 260.40925352 279.82163345 260.41218425 280.74634182 C260.45965065 295.28123305 260.55594653 309.8153967 260.67113553 324.34989173 C260.78837003 339.26610208 260.85637116 354.18193422 260.87783444 369.09859365 C260.89124061 377.47643542 260.92702275 385.852923 261.01906967 394.23030281 C261.09746712 401.36661782 261.13198972 408.5014207 261.10904478 415.63816012 C261.09873173 419.27983792 261.10945483 422.91823204 261.1771431 426.55936623 C261.55222071 447.81372226 261.55222071 447.81372226 258.37108278 452.69788623 C254.96444376 456.02135085 251.10939636 457.32727791 246.61401367 458.78955078 C244.42929407 459.99745483 242.26522623 461.24423929 240.13354492 462.54345703 C237.89901665 463.81500924 235.66329982 465.08447461 233.42651367 466.35205078 C230.9558377 467.75720556 228.48613261 469.16406351 226.01635742 470.57080078 C225.39625793 470.92372696 224.77615845 471.27665314 224.13726807 471.64027405 C217.90763282 475.18739134 211.69651147 478.76634742 205.48901367 482.35205078 C204.42529541 482.96636963 203.36157715 483.58068848 202.265625 484.21362305 C200.1209178 485.45247301 197.97630487 486.6914862 195.83178711 487.93066406 C190.42730718 491.05279685 185.0205126 494.17091604 179.61401367 497.28955078 C178.54280273 497.90765625 177.4715918 498.52576172 176.36791992 499.16259766 C170.92755292 502.30177452 165.48638413 505.43954707 160.04370117 508.57470703 C149.59195168 514.59702407 139.15101819 520.63624415 128.73901367 526.72705078 C119.4690159 532.14876256 110.15569615 537.49159993 100.82556152 542.80877686 C91.70118527 548.01000207 82.61268593 553.26982956 73.54711914 558.57299805 C63.04355933 564.71529338 52.50122293 570.78980941 41.95776367 576.86328125 C37.34623942 579.51989094 32.73549227 582.17784636 28.12524414 584.83666992 C25.94736485 586.09267976 23.76931861 587.34840017 21.59106445 588.60375977 C20.090354 589.46916382 20.090354 589.46916382 18.55932617 590.35205078 C17.58382813 590.91021484 16.60833008 591.46837891 15.60327148 592.04345703 C13.50527627 593.26894395 11.42790963 594.53010777 9.36694336 595.81689453 C7.78381348 596.79335937 7.78381348 596.79335937 6.16870117 597.78955078 C4.74920166 598.68673828 4.74920166 598.68673828 3.30102539 599.60205078 C0.13595406 601.00082481 -1.15072645 600.88326352 -4.38598633 599.78955078 C-6.84701358 598.47583517 -9.20069721 597.12193757 -11.57348633 595.66455078 C-13.09872735 594.74785273 -14.62482582 593.83258038 -16.15161133 592.91845703 C-16.9862793 592.41717285 -17.82094727 591.91588867 -18.6809082 591.39941406 C-23.69759659 588.41385059 -28.76313079 585.51276457 -33.82348633 582.60205078 C-36.07221392 581.30652937 -38.32091144 580.01095576 -40.56958008 578.71533203 C-42.2631665 577.74007568 -42.2631665 577.74007568 -43.9909668 576.74511719 C-49.45768612 573.59623025 -54.9217352 570.44271814 -60.38598633 567.28955078 C-62.55263944 566.03952728 -64.71930612 564.78952731 -66.88598633 563.53955078 C-88.55265299 551.03955078 -110.21931966 538.53955078 -131.88598633 526.03955078 C-132.95864746 525.42072021 -134.03130859 524.80188965 -135.13647461 524.16430664 C-137.30155703 522.9151956 -139.46659615 521.66600949 -141.6315918 520.41674805 C-147.07214339 517.27752769 -152.51345849 514.13964515 -157.95629883 511.00439453 C-168.40804832 504.98207749 -178.84898181 498.94285741 -189.26098633 492.85205078 C-197.9386127 487.77679724 -206.65218939 482.76722623 -215.38598633 477.78955078 C-224.49181481 472.59886752 -233.57985035 467.37916484 -242.63598633 462.10205078 C-243.60536133 461.53808594 -244.57473633 460.97412109 -245.57348633 460.39306641 C-246.9424707 459.59352539 -246.9424707 459.59352539 -248.33911133 458.77783203 C-249.12447266 458.31932861 -249.90983398 457.8608252 -250.71899414 457.38842773 C-251.59910156 456.86079834 -252.47920898 456.33316895 -253.38598633 455.78955078 C-254.03655569 455.51562028 -254.68712506 455.24168978 -255.35740864 454.95945835 C-257.77750522 453.79427698 -259.4952583 452.70894384 -261.38598633 450.78955078 C-262.63086465 446.83992344 -262.52581247 442.96436239 -262.49606323 438.84863281 C-262.51842108 437.62438378 -262.54077893 436.40013475 -262.56381428 435.13878727 C-262.6173437 431.7422815 -262.63493559 428.34904964 -262.63701034 424.95235038 C-262.64772161 421.28855931 -262.70405268 417.62541847 -262.75393677 413.96199036 C-262.85392823 405.95139125 -262.89390493 397.94116471 -262.92163229 389.93003464 C-262.93920761 384.92481668 -262.96920576 379.91972207 -263.00165176 374.9145813 C-263.08955906 361.04840396 -263.16355711 347.18233375 -263.1829052 333.31587219 C-263.1841586 332.42856712 -263.18541201 331.54126204 -263.18670339 330.62706894 C-263.18920164 328.82837137 -263.19169713 327.0296738 -263.19418989 325.23097622 C-263.19544658 324.33813298 -263.19670327 323.44528973 -263.19799805 322.52539062 C-263.19924486 321.63145312 -263.20049168 320.73751562 -263.20177628 319.8164891 C-263.22463498 305.34253087 -263.34841281 290.87136303 -263.51643191 276.39843178 C-263.68766941 261.52824878 -263.7760338 246.65945659 -263.7812959 231.78826904 C-263.78612458 223.44243382 -263.82582765 215.10008748 -263.95656967 206.75518799 C-264.06751353 199.64559788 -264.10208526 192.54065795 -264.03912221 185.43039554 C-264.00923711 181.80411679 -264.01402728 178.18709751 -264.11617279 174.5619297 C-264.6769953 153.45387748 -264.6769953 153.45387748 -259.21317911 147.37026978 C-253.94095038 143.17738788 -248.18385002 140.38237166 -241.96592736 137.86598778 C-238.57920888 136.45293646 -235.58676467 134.68721502 -232.46411133 132.76611328 C-230.52210144 131.64771211 -228.57940227 130.5305069 -226.63598633 129.41455078 C-224.4328424 128.14635449 -222.22971798 126.87812433 -220.02661133 125.60986328 C-218.92897461 124.97854492 -217.83133789 124.34722656 -216.70043945 123.69677734 C-211.25948068 120.56590154 -205.82293385 117.42738536 -200.38598633 114.28955078 C-198.21934135 113.0395132 -196.05267467 111.78951322 -193.88598633 110.53955078 C-192.81348633 109.92080078 -191.74098633 109.30205078 -190.63598633 108.66455078 C-50.88598633 28.03955078 -50.88598633 28.03955078 -47.63037109 26.16137695 C-45.48234587 24.92208811 -43.33439558 23.68266937 -41.18652344 22.44311523 C-36.09943083 19.50752511 -31.01156786 16.57329406 -25.92105103 13.64364624 C-23.51054885 12.25626983 -21.10047257 10.86815454 -18.69042969 9.47998047 C-16.98454665 8.49781263 -15.27804647 7.51671694 -13.5715332 6.53564453 C-12.5422168 5.94267578 -11.51290039 5.34970703 -10.45239258 4.73876953 C-9.54432861 4.21629639 -8.63626465 3.69382324 -7.70068359 3.15551758 C-2.04748266 -0.18059245 -2.04748266 -0.18059245 0 0 Z " fill="#DC244C" transform="translate(694.385986328125,500.21044921875)"/>
<path d="M0 0 C0.29756067 38.20919701 0.5266272 76.41821948 0.66384928 114.62834072 C0.68010845 119.13943607 0.69693465 123.65052915 0.71411133 128.16162109 C0.71752136 129.05969766 0.7209314 129.95777422 0.72444477 130.88306522 C0.78101131 145.42446681 0.88350906 159.96520023 1.00298635 174.50620544 C1.12456069 189.42688611 1.19676458 204.34721689 1.22315043 219.26837254 C1.24098837 228.47587028 1.29731716 237.6814796 1.40291407 246.88839597 C1.47163944 253.20217238 1.49240114 259.51497285 1.47551791 265.82909614 C1.46718964 269.47281149 1.47993238 273.11322888 1.54967117 276.75635719 C1.93680018 298.02369551 1.93680018 298.02369551 -1.24226403 302.9090023 C-4.64862868 306.23357592 -8.50387484 307.5384563 -13 309 C-15.18474534 310.2078575 -17.34881873 311.45463717 -19.48046875 312.75390625 C-21.71499702 314.02545846 -23.95071386 315.29492382 -26.1875 316.5625 C-28.65817597 317.96765477 -31.12788106 319.37451273 -33.59765625 320.78125 C-34.21775574 321.13417618 -34.83785522 321.48710236 -35.47674561 321.85072327 C-41.70638085 325.39784056 -47.9175022 328.97679664 -54.125 332.5625 C-55.18871826 333.17681885 -56.25243652 333.7911377 -57.34838867 334.42407227 C-59.49309587 335.66292223 -61.6377088 336.90193541 -63.78222656 338.14111328 C-69.18670649 341.26324607 -74.59350107 344.38136526 -80 347.5 C-81.07121094 348.11810547 -82.14242187 348.73621094 -83.24609375 349.37304688 C-88.68646075 352.51222374 -94.12762955 355.64999629 -99.5703125 358.78515625 C-110.02206199 364.80747329 -120.46299548 370.84669337 -130.875 376.9375 C-140.14499777 382.35921178 -149.45831752 387.70204915 -158.78845215 393.01922607 C-167.9128284 398.22045129 -177.00132774 403.48027878 -186.06689453 408.78344727 C-196.57045435 414.92574259 -207.11279074 421.00025862 -217.65625 427.07373047 C-222.26777425 429.73034016 -226.8785214 432.38829557 -231.48876953 435.04711914 C-233.66664882 436.30312898 -235.84469506 437.55884939 -238.02294922 438.81420898 C-239.02342285 439.39114502 -240.02389648 439.96808105 -241.0546875 440.5625 C-242.02631836 441.12195312 -242.99794922 441.68140625 -243.99902344 442.2578125 C-246.12353665 443.4911778 -248.24069131 444.73725904 -250.35253906 445.9921875 C-251.97627441 446.95511719 -251.97627441 446.95511719 -253.6328125 447.9375 C-254.6139502 448.52402344 -255.59508789 449.11054687 -256.60595703 449.71484375 C-259 451 -259 451 -261 451 C-261.20594168 412.88402361 -261.36455711 374.76813094 -261.45958797 336.65171089 C-261.4708445 332.15306026 -261.48249338 327.65441072 -261.49438477 323.15576172 C-261.49674556 322.26015115 -261.49910635 321.36454058 -261.50153869 320.4417903 C-261.54071452 305.93478805 -261.61168304 291.42810637 -261.69437516 276.92129438 C-261.77850079 262.03902209 -261.82852084 247.15691783 -261.84679645 232.27441752 C-261.85915381 223.08883891 -261.89819878 213.90416629 -261.9712482 204.71886654 C-262.01877547 198.42250039 -262.03321184 192.12660346 -262.0215124 185.8300709 C-262.01573977 182.19537772 -262.02466402 178.56226876 -262.07284927 174.92785645 C-262.12470023 170.98821156 -262.10691893 167.05063647 -262.08229065 163.11068726 C-262.12161401 161.3859761 -262.12161401 161.3859761 -262.16173178 159.62642229 C-262.03338018 152.05569618 -262.03338018 152.05569618 -259.02930915 148.98675179 C-256.74420261 147.44111856 -254.48541882 146.1899915 -252 145 C-251.01136963 144.39937744 -250.02273926 143.79875488 -249.00415039 143.17993164 C-248.12750732 142.67840576 -247.25086426 142.17687988 -246.34765625 141.66015625 C-245.33767578 141.08007812 -244.32769531 140.5 -243.28710938 139.90234375 C-242.22298828 139.29519531 -241.15886719 138.68804688 -240.0625 138.0625 C-238.3326544 137.07007862 -236.60281157 136.07765235 -234.87313843 135.08493042 C-233.09060128 134.06235909 -231.30731803 133.04109866 -229.52392578 132.02001953 C-224.00810231 128.860301 -218.50476433 125.67893132 -213 122.5 C-210.83600547 121.2511843 -208.67194277 120.0024867 -206.5078125 118.75390625 C-205.43563477 118.13531738 -204.36345703 117.51672852 -203.25878906 116.87939453 C-199.98300434 114.99019834 -196.70644107 113.10235891 -193.4296875 111.21484375 C-182.97793801 105.19252671 -172.53700452 99.15330663 -162.125 93.0625 C-152.85500223 87.64078822 -143.54168248 82.29795085 -134.21154785 76.98077393 C-125.0871716 71.77954871 -115.99867226 66.51972122 -106.93310547 61.21655273 C-96.40915375 55.06233258 -85.84619863 48.97630004 -75.28222656 42.89111328 C-69.85340059 39.76319852 -64.42680025 36.63142753 -59 33.5 C-52.41827123 29.70260037 -45.83635928 25.90551907 -39.25390625 22.109375 C-38.14329834 21.4687915 -37.03269043 20.82820801 -35.88842773 20.16821289 C-33.69667602 18.90413059 -31.50478483 17.6402901 -29.31274414 16.37670898 C-24.26301115 13.4647286 -19.2167572 10.54712017 -14.1796875 7.61328125 C-13.28950928 7.09540039 -12.39933105 6.57751953 -11.48217773 6.04394531 C-9.82695518 5.08031771 -8.17276319 4.11491699 -6.51977539 3.14746094 C-1.11106124 0 -1.11106124 0 0 0 Z " fill="#9E0D38" transform="translate(954,650)"/>
<path d="M0 0 C0.29756067 38.20919701 0.5266272 76.41821948 0.66384928 114.62834072 C0.68010845 119.13943607 0.69693465 123.65052915 0.71411133 128.16162109 C0.71752136 129.05969766 0.7209314 129.95777422 0.72444477 130.88306522 C0.78101131 145.42446681 0.88350906 159.96520023 1.00298635 174.50620544 C1.12456069 189.42688611 1.19676458 204.34721689 1.22315043 219.26837254 C1.24098837 228.47587028 1.29731716 237.6814796 1.40291407 246.88839597 C1.47163944 253.20217238 1.49240114 259.51497285 1.47551791 265.82909614 C1.46718964 269.47281149 1.47993238 273.11322888 1.54967117 276.75635719 C1.93680018 298.02369551 1.93680018 298.02369551 -1.24226403 302.9090023 C-4.64862868 306.23357592 -8.50387484 307.5384563 -13 309 C-15.18474534 310.2078575 -17.34881873 311.45463717 -19.48046875 312.75390625 C-21.71499702 314.02545846 -23.95071386 315.29492382 -26.1875 316.5625 C-28.65817597 317.96765477 -31.12788106 319.37451273 -33.59765625 320.78125 C-34.21775574 321.13417618 -34.83785522 321.48710236 -35.47674561 321.85072327 C-41.70638085 325.39784056 -47.9175022 328.97679664 -54.125 332.5625 C-55.18871826 333.17681885 -56.25243652 333.7911377 -57.34838867 334.42407227 C-59.49309587 335.66292223 -61.6377088 336.90193541 -63.78222656 338.14111328 C-69.18670649 341.26324607 -74.59350107 344.38136526 -80 347.5 C-81.07121094 348.11810547 -82.14242187 348.73621094 -83.24609375 349.37304688 C-88.68646075 352.51222374 -94.12762955 355.64999629 -99.5703125 358.78515625 C-110.02206199 364.80747329 -120.46299548 370.84669337 -130.875 376.9375 C-140.14499777 382.35921178 -149.45831752 387.70204915 -158.78845215 393.01922607 C-167.9128284 398.22045129 -177.00132774 403.48027878 -186.06689453 408.78344727 C-193.32211736 413.02617279 -200.59354142 417.2399661 -207.875 421.4375 C-208.94379395 422.05367187 -210.01258789 422.66984375 -211.11376953 423.3046875 C-215.58072422 425.87906931 -220.04836421 428.45225923 -224.51660156 431.02441406 C-226.87346291 432.38115258 -229.23006924 433.73833221 -231.58642578 435.09594727 C-233.79006869 436.36546119 -235.99413955 437.63423268 -238.19873047 438.90209961 C-239.20564941 439.4822583 -240.21256836 440.06241699 -241.25 440.66015625 C-242.21292969 441.21461426 -243.17585937 441.76907227 -244.16796875 442.34033203 C-247.80140222 444.46964934 -251.37766114 446.68759761 -254.94140625 448.93139648 C-257 450 -257 450 -260 450 C-260 350.67 -260 251.34 -260 149 C-71.5 40.25 -71.5 40.25 -68.24951172 38.37475586 C-66.08442929 37.12564482 -63.91939018 35.87645871 -61.75439453 34.62719727 C-56.31384294 31.48797691 -50.87252784 28.35009437 -45.4296875 25.21484375 C-43.24478807 23.95573541 -41.05989221 22.69662086 -38.875 21.4375 C-37.81474609 20.82704834 -36.75449219 20.21659668 -35.66210938 19.58764648 C-30.12784828 16.39717366 -24.60590431 13.18712418 -19.1015625 9.9453125 C-17.43891357 8.96800171 -17.43891357 8.96800171 -15.74267578 7.97094727 C-13.62162506 6.7226222 -11.50271524 5.47065051 -9.38623047 4.21459961 C-7.97301514 3.38327515 -7.97301514 3.38327515 -6.53125 2.53515625 C-5.70173828 2.044104 -4.87222656 1.55305176 -4.01757812 1.04711914 C-2 0 -2 0 0 0 Z " fill="#9E0D38" transform="translate(954,1150)"/>
<path d="M0 0 C2.3581543 1.16064453 2.3581543 1.16064453 4.82421875 2.6328125 C5.75669434 3.18380615 6.68916992 3.7347998 7.64990234 4.30249023 C8.65230957 4.90391846 9.6547168 5.50534668 10.6875 6.125 C12.86025981 7.41086159 15.03345157 8.69599352 17.20703125 9.98046875 C18.32932129 10.6461084 19.45161133 11.31174805 20.60791016 11.99755859 C26.00694148 15.18475126 31.4405284 18.31124675 36.875 21.4375 C39.05994368 22.69653156 41.24483925 23.95564661 43.4296875 25.21484375 C45.05729004 26.15239502 45.05729004 26.15239502 46.71777344 27.10888672 C52.14659942 30.23680148 57.57319281 33.36858448 63 36.5 C65.16665583 37.75001879 67.3333225 39.00001878 69.5 40.25 C102 59 102 59 134.5 77.75 C135.57266113 78.36883057 136.64532227 78.98766113 137.75048828 79.62524414 C139.91557071 80.87435518 142.08060982 82.12354129 144.24560547 83.37280273 C149.68615706 86.51202309 155.12747216 89.64990563 160.5703125 92.78515625 C171.02206199 98.80747329 181.46299548 104.84669337 191.875 110.9375 C199.96254396 115.66763407 208.07901798 120.34469029 216.21868896 124.98434448 C220.31498354 127.31994119 224.40837336 129.66062605 228.50195312 132.00097656 C230.85899552 133.3484945 233.2172239 134.693907 235.57617188 136.03808594 C238.97269 137.97463988 242.36162059 139.9242383 245.75 141.875 C246.78640625 142.46410156 247.8228125 143.05320312 248.890625 143.66015625 C249.8290625 144.20285156 250.7675 144.74554687 251.734375 145.3046875 C252.97525879 146.0160083 252.97525879 146.0160083 254.24121094 146.74169922 C254.82161133 147.15693848 255.40201172 147.57217773 256 148 C256 148.66 256 149.32 256 150 C255.27748047 150.41137207 254.55496094 150.82274414 253.81054688 151.24658203 C241.17548317 158.44409858 228.54821437 165.65173491 216 173 C207.3650412 178.05633807 198.69393663 183.04607133 190 188 C180.27875494 193.53985933 170.59105132 199.13374932 160.93310547 204.78344727 C150.40915375 210.93766742 139.84619863 217.02369996 129.28222656 223.10888672 C123.85340058 226.23680148 118.42680719 229.36858448 113 232.5 C110.83334417 233.75001879 108.6666775 235.00001878 106.5 236.25 C105.4275 236.86875 104.355 237.4875 103.25 238.125 C67.49999999 258.75 67.49999999 258.75 64.24951172 260.62524414 C62.08442929 261.87435518 59.91939018 263.12354129 57.75439453 264.37280273 C52.31384294 267.51202309 46.87252784 270.64990563 41.4296875 273.78515625 C40.34510254 274.41035156 39.26051758 275.03554688 38.14306641 275.6796875 C35.98213272 276.92465392 33.82036194 278.1681686 31.65771484 279.41015625 C26.13265764 282.58897935 20.63555265 285.80648864 15.171875 289.08984375 C13.52276123 290.07392212 13.52276123 290.07392212 11.84033203 291.07788086 C9.74133157 292.33265919 7.64823373 293.59737985 5.56201172 294.87329102 C4.62631348 295.43072998 3.69061523 295.98816895 2.7265625 296.5625 C1.90752441 297.05878906 1.08848633 297.55507813 0.24462891 298.06640625 C-2.45699704 299.19007578 -3.32017686 299.08768529 -6 298 C-7.69593014 297.15745491 -9.36573296 296.26150289 -11.015625 295.33203125 C-12.00667236 294.77596191 -12.99771973 294.21989258 -14.01879883 293.64697266 C-15.08509521 293.04159668 -16.1513916 292.4362207 -17.25 291.8125 C-18.36463623 291.1839209 -19.47927246 290.5553418 -20.62768555 289.90771484 C-29.04978 285.14344986 -37.41779247 280.28856856 -45.76464844 275.39379883 C-53.47828379 270.87328763 -61.23156242 266.42529443 -69 262 C-78.72142984 256.46046897 -88.40895304 250.86624813 -98.06689453 245.21655273 C-108.59084625 239.06233258 -119.15380137 232.97630004 -129.71777344 226.89111328 C-135.14659942 223.76319852 -140.57319281 220.63141552 -146 217.5 C-148.16665583 216.24998121 -150.3333225 214.99998122 -152.5 213.75 C-189.33333333 192.5 -226.16666667 171.25 -263 150 C-263 149.34 -263 148.68 -263 148 C-262.2879541 147.59386475 -261.5759082 147.18772949 -260.84228516 146.76928711 C-244.60954545 137.50808466 -228.39940195 128.2092014 -212.21777344 118.85888672 C-206.81329355 115.73675395 -201.40652588 112.61858796 -196 109.5 C-193.8333225 108.25001878 -191.66665583 107.00001879 -189.5 105.75 C-150.5 83.25 -150.5 83.25 -147.24951172 81.37475586 C-145.08442929 80.12564482 -142.91939018 78.87645871 -140.75439453 77.62719727 C-135.31384294 74.48797691 -129.87252784 71.35009437 -124.4296875 68.21484375 C-113.97793801 62.19252671 -103.53700452 56.15330663 -93.125 50.0625 C-84.44737548 44.98724753 -75.73386463 39.97755447 -67 35 C-58.22602338 29.99908214 -49.47138467 24.96732319 -40.75 19.875 C-39.78924561 19.31611084 -38.82849121 18.75722168 -37.83862305 18.18139648 C-32.6486051 15.1565394 -27.48638221 12.09175137 -22.34765625 8.98046875 C-20.70748535 7.99747803 -20.70748535 7.99747803 -19.03417969 6.99462891 C-16.93251399 5.73420284 -14.8377136 4.4622368 -12.75097656 3.17724609 C-11.33703613 2.33347412 -11.33703613 2.33347412 -9.89453125 1.47265625 C-9.06800049 0.97000244 -8.24146973 0.46734863 -7.38989258 -0.05053711 C-4.39596095 -1.23997424 -3.03835032 -0.99722807 0 0 Z " fill="#FE506A" transform="translate(697,501)"/>
</svg>
